<?xml version="1.0" encoding="utf-8"?>
<!-- Generator: Adobe Illustrator 23.0.2, SVG Export Plug-In . SVG Version: 6.00 Build 0)  -->
<svg version="1.1" id="圖層_1" xmlns="http://www.w3.org/2000/svg" xmlns:xlink="http://www.w3.org/1999/xlink" x="0px" y="0px"
	 viewBox="0 0 30 30" style="enable-background:new 0 0 30 30;" xml:space="preserve">
<style type="text/css">
	.st0{fill:#FFFFFF;}
</style>
<path class="st0" d="M3.8,2h22.4c0.5,0,0.9-0.4,0.9-0.9c0-0.5-0.4-0.9-0.9-0.9H3.8C3.3,0.1,2.9,0.5,2.9,1C2.9,1.5,3.3,2,3.8,2z
	 M0,12.5c0,1.7,1.2,3.1,2.8,3.5V28H0.9C0.4,28,0,28.4,0,28.9v0c0,0.5,0.4,0.9,0.9,0.9h28.1c0.5,0,0.9-0.4,0.9-0.9v0
	c0-0.5-0.4-0.9-0.9-0.9h-1.8V16c1.6-0.5,2.7-1.8,2.7-3.5v-1.3H0V12.5z M11,16.2c0.1,0,0.1,0,0.2,0c2.1,0,3.7-1.7,3.7-3.8
	c0,2.1,1.7,3.8,3.8,3.8s3.7-1.7,3.7-3.8c0,1.8,1.4,3.3,3.1,3.6V28H11V16.2z M4.4,16.1c1.7-0.3,3.1-1.8,3.1-3.6
	c0,1.7,1.2,3.2,2.8,3.6V28H4.4V16.1z M27.1,3H2.9L0,10.2h30L27.1,3z M5.8,8.7H5.1l1.7-4.2h0.7L5.8,8.7z M9.7,8.7H9l1.7-4.2h0.7
	L9.7,8.7z M15.4,8.7h-0.7V4.5h0.7V8.7z M20.3,8.7l-1.7-4.2h0.7L21,8.7H20.3z M24.2,8.7l-1.7-4.2h0.7l1.7,4.2H24.2z M19.3,17.9
	l-0.5-0.5l-3,3l0.5,0.5L19.3,17.9z M18.5,23.1l0.5,0.5l3-3l-0.5-0.5L18.5,23.1z M15.8,22.4l1,1l5.2-5.2l-1-1L15.8,22.4z M9.1,19.5
	c0-0.5-0.4-0.8-0.8-0.8c-0.5,0-0.8,0.4-0.8,0.8c0,0.3,0.2,0.5,0.5,0.7v2.6c-0.3,0.1-0.5,0.4-0.5,0.7c0,0.5,0.4,0.8,0.8,0.8
	c0.5,0,0.8-0.4,0.8-0.8c0-0.3-0.2-0.5-0.5-0.7v-2.6C8.9,20.1,9.1,19.8,9.1,19.5z"/>
</svg>
