<?xml version="1.0" encoding="utf-8"?>
<!-- Generator: Adobe Illustrator 23.0.2, SVG Export Plug-In . SVG Version: 6.00 Build 0)  -->
<svg version="1.1" id="圖層_1" xmlns="http://www.w3.org/2000/svg" xmlns:xlink="http://www.w3.org/1999/xlink" x="0px" y="0px"
	 viewBox="0 0 240 60" style="enable-background:new 0 0 240 60;" xml:space="preserve">
<style type="text/css">
	.st0{fill:#FFFFFF;}
</style>
<g>
	<g>
		<g>
			<g>
				<path class="st0" d="M101,18.5H81.2l1.4-7.8h20.8V4.6H63.7v6.1h11.8l-1.4,7.8h-9.6v6H73l-2.5,15.2h-8v5.8h41.9v-5.8H101V18.5z
					 M94.2,39.6H77.6l2.5-15.2h14L94.2,39.6L94.2,39.6z M124.8,4.6h-16.4v4.9h16.4V4.6z M149,4.6h-22.7v5.1H149V4.6z M108.3,37.7
					c0,0.6-0.2,0.9-0.6,0.9h-0.6v5.1h2.9c1.6,0,2.5-1,2.5-3V19h-4.2C108.3,19,108.3,37.7,108.3,37.7z M145.4,24.2c2,0,3-1.2,3-3.5
					v-8.6h-21.1v12.1H145.4z M133.2,16.8h9.2v2.3c0,0.3-0.2,0.4-0.6,0.4h-8.6L133.2,16.8L133.2,16.8z M124.3,37.5V19H120v21.5
					c0,2,0.9,3,2.6,3h2.8v-5.1h-0.3C124.5,38.4,124.3,38.1,124.3,37.5z M107.6,17.2h6v28.3h5.1V17.2h6.7v-4.9h-17.7L107.6,17.2
					L107.6,17.2z M126.2,45.5h18.4c3,0,4.5-1,4.5-3.3V25.9h-22.8L126.2,45.5L126.2,45.5z M140.1,30.8h3.1v3h-3.1V30.8z M140.1,38.1
					h3.1V40c0,0.8-0.5,1.1-1.5,1.1h-1.6V38.1z M132,30.8h2.8v3H132V30.8z M132,38.1h2.8v3H132V38.1z M178.2,39.4V19.6h11.2
					c2.9,0,4.4-1.5,4.4-4.6v-2.6h-5c-0.4,1.3-0.9,1.9-1.4,1.9h-15.1v28.1c0,2.1,1.2,3,3.5,3h7.4v-5.1h-3.8
					C178.6,40.3,178.2,40,178.2,39.4z M192.7,29.8c0.6-0.9,1.2-2.9,1.8-6.3h-5.2c-0.4,1.9-0.9,2.8-1.4,2.8h-1.5l-1.4-4.2h-6.3
					l6.5,20.3c0.5,2.1,1.7,3.1,3.7,3.1h5.6v-5.4H192c-0.7,0-1.2-0.5-1.4-1.5l-2.5-7.4h2.6C191.4,31.1,192.1,30.7,192.7,29.8z
					 M165.5,4.6h-6.1v2.3h-6.3v5.4h1.9v25.4c0,1.7-0.4,2.6-1.1,2.6h-0.6v5.2h2.6c1.4,0,2.5-0.3,3.3-1.1c0.9-1,1.4-2.2,1.4-3.7V22.4
					h3.2V39c0,0.8-0.5,1.3-1.4,1.3h-0.7v5.2h2.7c3.5,0,5.3-1.4,5.3-4.6V17h-9.2v-4.7h9.5V6.9h-4.5L165.5,4.6L165.5,4.6z M178.6,11.3
					L178.6,11.3l15.6-0.1V5.8h-13.4l0.5-1.2h-6.2l-1,2.7c-0.2,0.7-0.6,1-1.2,1h-1.7v5.4h4.1C176.9,13.7,178,12.9,178.6,11.3z
					 M206.2,4.6h-6.7v6.2h6.7V4.6z M231.3,11.5L231.3,11.5l8.4-0.1V6.3h-7.1l0.4-1.7h-5.6l-0.8,3.7c-0.2,0.6-0.4,0.8-0.7,0.8h-0.7
					V14h2.7C229.7,14,230.8,13.1,231.3,11.5z M237.1,22.7l2.2-4.2v-3.6H225V20h7.6l-1.3,2.8h-6.6V28h5.8v4.2c0,1.3-0.3,1.9-1,1.9h-3
					V39h6.2c2.1,0,3.2-1.2,3.2-3.7V28h4.1v-5.2h-2.9V22.7z M208.2,39h2.9c1.4,0,2.5-0.4,3.2-1.3c0.9-0.9,1.4-2.1,1.4-3.6V19h3.1v14
					c0,0.8-0.4,1.1-1.2,1.1h-0.8V39h2.5c3,0,4.5-1.4,4.5-4.3V14.5h-8.1v-2.6h9v-5h-4.8V4.6h-6v2.3h-5.5V12h1.8v19.6
					c0,1.6-0.4,2.4-1.1,2.4H208v4.9c-1.1-0.8-1.7-1.5-1.7-2.1V21.4h-8.2V27h2.3v11.7c0,0.6-0.8,1.1-2.3,1.6v5.2c3,0,5.4-0.5,7.2-2
					c1.5,1.2,3.2,2,5.1,2h29.2v-5.6h-28.1C210.6,39.9,209.5,39.6,208.2,39z M206.2,12.8h-6.7v6.7h6.7V12.8z"/>
			</g>
		</g>
	</g>
	<g>
		<g>
			<g>
				<path class="st0" d="M54.1,54.3l-2.3,0.3c-0.2-0.7-0.7-1.1-1.6-1.1c-1.3,0-1.9,0.7-1.9,2.1c0,1.5,0.7,2.2,2,2.2
					c0.9,0,1.5-0.4,1.7-1.3l2.3,0.3c-0.5,1.7-1.9,2.5-4.2,2.5c-1.3,0-2.4-0.3-3.2-1s-1.1-1.5-1.1-2.6c0-1,0.3-1.8,1-2.6
					c0.7-0.7,1.8-1.1,3.3-1.1C52.2,52.1,53.6,52.8,54.1,54.3z M55.4,55.6c0-1,0.4-1.8,1.3-2.5c0.8-0.7,2-1,3.3-1
					c1.4,0,2.5,0.3,3.3,1c0.9,0.7,1.3,1.5,1.3,2.6c0,1-0.4,1.9-1.3,2.6c-0.9,0.7-2,1-3.3,1c-1.4,0-2.5-0.3-3.4-1
					C55.8,57.7,55.4,56.8,55.4,55.6z M57.8,55.7c0,0.6,0.2,1.1,0.6,1.5c0.4,0.4,0.9,0.6,1.6,0.6c0.7,0,1.2-0.2,1.6-0.6
					c0.4-0.4,0.6-0.9,0.6-1.5s-0.2-1.1-0.6-1.5c-0.4-0.4-0.9-0.6-1.6-0.6c-0.7,0-1.2,0.2-1.6,0.6S57.8,55.1,57.8,55.7z M66.3,52.2
					h2.2v1c0.8-0.7,1.7-1.1,2.8-1.1c1.2,0,2,0.4,2.5,1.1c0.8-0.7,1.7-1.1,2.7-1.1c2,0,2.9,0.9,2.9,2.7v4.4H77v-4
					c0-0.8-0.1-1.3-0.4-1.5c-0.2-0.2-0.5-0.3-0.9-0.3c-1.2,0-1.8,0.8-1.8,2.4v3.3h-2.4v-3.8c0-0.6-0.1-1-0.2-1.4
					c-0.1-0.3-0.5-0.5-1-0.5s-0.9,0.1-1.3,0.4c-0.3,0.3-0.5,0.9-0.5,1.9v3.4h-2.4v-6.9H66.3z M81.9,59.2v-1.8h2.4v1.8H81.9z
					 M41.8,59.2v-1.8h2.4v1.8H41.8z M90.8,52.2v1.5h-1.6v2.8c0,0.6,0,0.9,0.1,1.1c0.1,0.2,0.3,0.2,0.5,0.2s0.5-0.1,1-0.2L91,59
					c-0.6,0.2-1.2,0.3-1.9,0.3c-1,0-1.6-0.2-1.9-0.6c-0.3-0.4-0.4-1.1-0.4-2v-3h-1.1v-1.5h1.1v-1.4l2.4-1.1v2.5H90.8z M94.2,59.2
					l-2.8-6.9h2.3l1.7,4.5l1.5-4.5h2.3l1.5,4.5l1.7-4.5h2.3l-2.9,6.9h-2.3L98,54.7l-1.5,4.5H94.2z"/>
			</g>
		</g>
		<path class="st0" d="M37.6,10.8c-0.2-0.3-0.4-0.4-0.7-0.4s-0.6,0.1-1,0.3c-0.3,0.2-0.5,0.5-0.7,0.8s-0.3,0.7-0.4,1.1
			c-0.1,0.4-0.1,0.8,0,1.2s0.2,0.9,0.4,1.3c1.2-0.9,2.1-1.6,2.5-2.4C38,12,38,11.3,37.6,10.8z M30.5,40.8c-0.7-0.4-1.6,0.5-2.8,2.8
			l-4.5,0.3c-0.1,0-0.2,0.1-0.2,0.2l-0.2,0.7v0.1l0.1,0.1l3.8,0.9c-0.5,1.2-0.7,1.7-0.9,2.1l-1.4-0.1c-0.1,0-0.1,0-0.2,0.1L24,48.4
			c0,0.1,0,0.2,0.1,0.2l1.3,0.7c0,0.2,0.1,0.4,0.3,0.5c0.2,0.1,0.3,0.1,0.5,0l1.3,0.7c0.1,0,0.2,0,0.2-0.1l0.3-0.5
			c0-0.1,0-0.1,0-0.2l-0.9-1.1c0.2-0.4,0.5-0.8,1.3-1.9l2.8,2.7h0.1c0,0,0.1,0,0.1-0.1l0.5-0.6c0-0.1,0-0.1,0-0.2l-2.2-3.9
			C31,42.3,31.3,41.1,30.5,40.8z M9.5,46.8l2.9,8.8c0.7,2.3,3.2,3.5,5.5,2.8l1.4-0.4l-5.9-13.9L9.5,46.8z M48,24.1
			c0.1,0.2,0.2,0.4,0.4,0.7c0.1,0.2,0.2,0.4,0.3,0.6s0.2,0.3,0.2,0.4l0,0c-0.1-1.1-0.1-2,0.1-2.7c0.2-0.7,0.6-1.3,1.2-1.7
			c0.2-0.1,0.4-0.2,0.6-0.3c0.1,0,0.2-0.1,0.2-0.1L45.3,3.7c-0.7-2.3-3.2-3.5-5.5-2.8L27.1,5.1l0.9,2c-0.2,0.1-0.5,0.1-0.8,0.2
			s-0.5,0.2-0.7,0.4C26,8,25.7,8.4,25.6,8.9c-0.1,0.4,0,1,0.3,1.7l0.6,1.3l2.4-1.7l1.2,2.7l-2.4,1.7l3.7,8.8c0.2,0.5,0.6,1.3,0.8,2
			l0,0c0.2,0.5,0.3,0.9,0.4,1.1c0.2,0.6,0.2,1.2,0.2,1.7c0,1.2-0.3,2.3-0.9,3.3c-0.6,0.9-1.5,1.8-2.5,2.5c-0.5,0.3-1,0.6-1.5,0.9
			c-0.5,0.2-0.9,0.4-1.3,0.5l-1.3-3c0.4-0.1,0.8-0.2,1.1-0.4c0.4-0.2,0.7-0.3,0.9-0.5c0.5-0.4,0.9-0.7,1.2-1.1
			c0.3-0.4,0.4-0.8,0.5-1.3c0-0.5,0-1-0.1-1.5c-0.1-0.6-0.4-1.2-0.7-1.8l0,0L24.5,17l-1.8,1.2l-1.2-2.8l1.8-1.2l-0.7-1.7
			c-0.6-1.5-0.7-2.8-0.4-4c0.2-0.8,0.7-1.5,1.3-2.2L3,13c-2.3,0.7-3.5,3.2-2.8,5.5l8.2,25.1l11.1-7.8l1.3,3.1l-4.1,2.9l6.3,15
			l31.7-10.4c2.3-0.7,3.5-3.2,2.8-5.5l-5.4-16.4H52c-0.3,0.1-0.5,0.2-0.7,0.3c-0.4,0.3-0.7,0.6-0.9,1s-0.3,0.8-0.3,1.3s0,1,0.1,1.5
			s0.3,1.1,0.5,1.6l2.2,5l-3.3,2.3L46.5,30c-0.2-0.4-0.3-0.7-0.5-1.1s-0.4-0.8-0.5-1.1c-0.2-0.4-0.3-0.7-0.5-1.1
			c-0.2-0.3-0.3-0.6-0.5-0.9l3.2-2.2C47.8,23.7,47.9,23.9,48,24.1z M22.2,24.6c0.1,0.3,0.2,0.6,0.4,0.9c0.1,0.3,0.3,0.6,0.5,0.8
			c0.2,0.3,0.4,0.4,0.6,0.4s0.5-0.1,0.7-0.2s0.3-0.3,0.5-0.4c0.2-0.2,0.3-0.3,0.4-0.5c0.2,0.5,0.4,0.9,0.6,1.4s0.4,0.9,0.6,1.4
			c-0.1,0.1-0.2,0.3-0.4,0.4c-0.1,0.1-0.3,0.3-0.4,0.5c-0.2,0.2-0.3,0.3-0.5,0.5s-0.4,0.3-0.6,0.4c-0.5,0.3-0.9,0.5-1.3,0.6
			s-0.8,0.1-1.2,0.1c-0.4-0.1-0.7-0.2-1-0.4c-0.3-0.2-0.6-0.5-0.8-0.9c-0.1-0.1-0.2-0.3-0.3-0.5c-0.1-0.2-0.2-0.4-0.3-0.6
			c-0.1-0.2-0.2-0.5-0.3-0.7c-0.1-0.2-0.2-0.5-0.3-0.7c-0.1-0.1-0.2-0.4-0.3-0.7c-0.2-0.4-0.3-0.8-0.5-1.2c-0.2-0.5-0.4-1-0.6-1.5
			s-0.4-1-0.6-1.5s-0.4-0.9-0.5-1.2c-0.2-0.4-0.3-0.6-0.3-0.7l3.3-2.3L22.2,24.6z M13.8,15.9c0-0.3,0-0.6,0-0.8
			c0.1-0.3,0.2-0.5,0.4-0.8s0.4-0.5,0.7-0.7s0.5-0.3,0.8-0.4c0.3-0.1,0.5-0.1,0.8-0.1s0.5,0.1,0.7,0.2c0.2,0.1,0.4,0.3,0.6,0.5
			c0.2,0.3,0.3,0.5,0.4,0.8c0,0.3,0,0.6,0,0.8c-0.1,0.3-0.2,0.5-0.4,0.8c-0.2,0.2-0.4,0.5-0.7,0.7c-0.3,0.2-0.5,0.3-0.8,0.4
			s-0.5,0.1-0.8,0.1s-0.5-0.1-0.7-0.2s-0.4-0.3-0.6-0.5C14,16.4,13.9,16.2,13.8,15.9z M11.2,38.8L4,22l3.3-2.3l5.9,13.7l5.4-3.8
			l1.3,3.1L11.2,38.8z M30.3,52.4c-3.8,1.3-7.9-0.8-9.2-4.6c-1.3-3.8,0.8-7.9,4.6-9.2s7.9,0.8,9.2,4.6C36.2,47,34.2,51.1,30.3,52.4z
			 M45.2,40.9c-0.1-0.2-0.2-0.4-0.4-0.7c-0.1-0.2-0.2-0.4-0.3-0.6c-0.1-0.2-0.2-0.4-0.3-0.5c-0.1-0.2-0.1-0.3-0.2-0.3l0,0
			c0,0.5-0.1,1-0.2,1.5c-0.1,0.5-0.3,0.9-0.5,1.4c-0.2,0.4-0.4,0.8-0.7,1.2s-0.6,0.7-1,0.9c-0.9,0.6-1.7,0.8-2.5,0.7
			c-0.8-0.2-1.5-0.7-2.1-1.6c-0.1-0.1-0.2-0.2-0.3-0.4s-0.2-0.4-0.3-0.6c-0.1-0.2-0.2-0.4-0.3-0.6c-0.1-0.2-0.2-0.4-0.2-0.5l-3-7
			l3.3-2.3l2.9,6.8c0.1,0.1,0.1,0.3,0.2,0.4c0.1,0.1,0.1,0.3,0.2,0.4c0.1,0.1,0.1,0.2,0.2,0.3c0.1,0.1,0.1,0.2,0.1,0.2
			c0.2,0.3,0.5,0.5,0.8,0.6s0.6,0,0.9-0.2c0.3-0.2,0.6-0.6,0.8-1s0.3-0.9,0.3-1.4s0-1-0.1-1.5s-0.2-1-0.4-1.4L39.8,29l3.3-2.3
			l3.4,8.1c0.2,0.3,0.3,0.7,0.5,1.1c0.2,0.4,0.4,0.7,0.5,1.1c0.2,0.3,0.3,0.6,0.5,0.9c0.2,0.3,0.3,0.5,0.4,0.7L45.2,40.9z
			 M43.2,17.9c-0.2,0.3-0.4,0.6-0.7,0.9s-0.6,0.6-0.9,0.9c-0.3,0.3-0.7,0.6-1,0.8c-0.8,0.6-1.6,0.9-2.3,1.1s-1.4,0.2-2.1,0
			c-0.6-0.1-1.2-0.4-1.8-0.8c-0.5-0.4-1-0.9-1.4-1.5c-0.6-0.9-1.1-1.8-1.3-2.9c-0.3-1-0.3-2-0.2-3c0.1-1,0.4-1.9,1-2.8
			C33,9.8,33.8,9,34.7,8.3c0.7-0.5,1.3-0.8,1.9-1c0.6-0.2,1.1-0.2,1.7-0.2c0.5,0.1,0.9,0.2,1.3,0.5c0.4,0.3,0.7,0.6,1,1
			c0.4,0.5,0.6,1.1,0.7,1.7c0.1,0.6,0,1.3-0.3,2s-0.8,1.5-1.6,2.3s-1.8,1.7-3.1,2.6c0,0,0,0.1,0.1,0.1c0,0,0,0.1,0.1,0.1
			c0.1,0.2,0.3,0.4,0.5,0.6s0.5,0.3,0.8,0.3c0.3,0.1,0.6,0,1-0.1c0.3-0.1,0.7-0.3,1.1-0.6c0.2-0.2,0.5-0.4,0.8-0.6s0.5-0.5,0.7-0.8
			s0.5-0.6,0.7-0.9c0.2-0.3,0.4-0.7,0.5-1l1.2,2.8C43.6,17.3,43.4,17.6,43.2,17.9z"/>
	</g>
</g>
</svg>
