<?xml version="1.0" encoding="utf-8"?>
<!-- Generator: Adobe Illustrator 23.0.2, SVG Export Plug-In . SVG Version: 6.00 Build 0)  -->
<svg version="1.1" id="Layer_1" xmlns="http://www.w3.org/2000/svg" xmlns:xlink="http://www.w3.org/1999/xlink" x="0px" y="0px"
	 viewBox="0 0 40 25.6" style="enable-background:new 0 0 40 25.6;" xml:space="preserve">
<style type="text/css">
	.st0{fill:#004E81;}
</style>
<path class="st0" d="M5.7,25.6l1.6-8.1H10l-1.6,8.1H5.7L5.7,25.6z M13.7,23h1.7L15,20L13.7,23L13.7,23z M10,25.6l4-8.1h2.6l1.7,8.1
	h-2.5l-0.1-1H13l-0.4,1H10L10,25.6z M20.7,25.6l0.9-6.1h-2.3l0.4-2.1h7.1l-0.4,2.1h-2.2l-0.9,6.1H20.7L20.7,25.6z M29.6,23h1.7
	l-0.4-3L29.6,23L29.6,23z M25.9,25.6l4-8.1h2.6l1.7,8.1h-2.5l-0.1-1H29l-0.4,1H25.9L25.9,25.6z M40,8.3H27.5c-0.5,2.3-2,4.2-5.2,5.5
	c0.4,1.1,1.6,2.1,2.9,2.1H32c1,0,1.9-0.9,2.2-1.6h-6.9c-0.4-0.1-0.4-0.4,0-0.5H34c0.9,0,1.7-0.7,2.1-1.6h-7.9
	c-0.4-0.1-0.4-0.4,0-0.5h7.9c0.8,0,1.5-0.9,1.8-1.6h-8.7c-0.4-0.1-0.4-0.5,0-0.5h8.9C38.9,9.8,39.5,9.1,40,8.3L40,8.3z M0,8.3h12.5
	c0.5,2.3,2,4.2,5.2,5.5c-0.4,1.1-1.6,2.1-2.9,2.1H8.1c-1,0-1.9-0.9-2.2-1.6h6.9c0.4-0.1,0.4-0.4,0-0.5H6c-0.9,0-1.7-0.7-2.1-1.6h7.9
	c0.4-0.1,0.4-0.4,0-0.5h-8c-0.8,0-1.5-0.9-1.8-1.6h8.7c0.4-0.1,0.4-0.5,0-0.5H1.8C1.1,9.8,0.5,9.1,0,8.3L0,8.3z M15.9,1.4
	c0.5,0.4,1,0.7,1.5,1c0.5-0.9,1.1-1.7,1.9-2.4C18.1,0.1,16.9,0.6,15.9,1.4L15.9,1.4z M13.7,6h2.8c0.1-1.1,0.3-2.1,0.8-3.2
	c-0.6-0.3-1.2-0.6-1.7-1.1C14.5,2.9,13.8,4.4,13.7,6L13.7,6z M19.8,3.4V6H17c0-1,0.3-2.1,0.7-3C18.4,3.2,19.1,3.3,19.8,3.4L19.8,3.4
	z M24.1,1.4c-0.5,0.4-1,0.7-1.5,1c-0.5-0.9-1.1-1.7-1.9-2.4C21.9,0.1,23.1,0.6,24.1,1.4L24.1,1.4z M26.3,6h-2.8
	c0-1.1-0.3-2.2-0.7-3.2c0.6-0.3,1.2-0.6,1.6-1.1C25.6,2.9,26.2,4.4,26.3,6L26.3,6z M20.2,3.4V6H23c0-1.1-0.3-2.1-0.7-3
	C21.6,3.2,20.9,3.3,20.2,3.4L20.2,3.4z M15.9,11c0.5-0.4,1-0.8,1.5-0.9c0.5,0.9,1.1,1.7,1.9,2.4C18.1,12.2,16.9,11.8,15.9,11
	L15.9,11z M13.7,6.4h2.8c0.1,1.2,0.3,2.2,0.8,3.2c-0.6,0.3-1.2,0.6-1.7,1C14.5,9.5,13.8,8,13.7,6.4L13.7,6.4z M19.8,9V6.4H17
	c0,1.1,0.3,2.1,0.7,3C18.4,9.2,19.1,9.1,19.8,9L19.8,9z M24.1,11c-0.4-0.4-1-0.7-1.5-0.9c-0.5,0.9-1.1,1.7-1.9,2.4
	C21.9,12.2,23.1,11.8,24.1,11L24.1,11z M26.3,6.4h-2.8c0,1.2-0.3,2.2-0.7,3.2c0.6,0.3,1.1,0.6,1.6,1C25.5,9.5,26.2,8,26.3,6.4
	L26.3,6.4z M20.2,9V6.4H23c0,1.1-0.3,2.1-0.7,3C21.7,9.2,20.9,9.1,20.2,9L20.2,9z M19.8,0.2c-0.8,0.6-1.4,1.4-1.9,2.3
	c0.6,0.2,1.2,0.4,1.9,0.4V0.2L19.8,0.2z M20.2,0.2c0.7,0.6,1.4,1.4,1.9,2.3c-0.6,0.2-1.2,0.4-1.9,0.4V0.2L20.2,0.2z M19.8,12.2
	c-0.8-0.6-1.4-1.4-1.9-2.3c0.6-0.2,1.2-0.3,1.9-0.3V12.2L19.8,12.2z M20.2,12.2c0.7-0.6,1.4-1.4,1.9-2.3c-0.6-0.2-1.2-0.3-1.9-0.3
	V12.2L20.2,12.2z"/>
</svg>
