<?xml version="1.0" standalone="no"?>
<!DOCTYPE svg PUBLIC "-//W3C//DTD SVG 1.1//EN" "http://www.w3.org/Graphics/SVG/1.1/DTD/svg11.dtd" >
<svg xmlns="http://www.w3.org/2000/svg">
<metadata>Generated by IcoMoon</metadata>
<defs>
<font id="icomoon" horiz-adv-x="1024">
<font-face units-per-em="1024" ascent="960" descent="-64" />
<missing-glyph horiz-adv-x="1024" />
<glyph unicode="&#x20;" horiz-adv-x="512" d="" />
<glyph unicode="&#xe000;" glyph-name="error" d="M554 384.667v256h-84v-256h84zM554 212.667v86h-84v-86h84zM512 852.667c236 0 426-190 426-426s-190-426-426-426-426 190-426 426 190 426 426 426z" />
<glyph unicode="&#xe001;" glyph-name="error_outline" d="M512 84.667c188 0 342 154 342 342s-154 342-342 342-342-154-342-342 154-342 342-342zM512 852.667c236 0 426-190 426-426s-190-426-426-426-426 190-426 426 190 426 426 426zM470 640.667h84v-256h-84v256zM470 298.667h84v-86h-84v86z" />
<glyph unicode="&#xe0da;" glyph-name="vpn_key" d="M298 340.667c46 0 86 40 86 86s-40 86-86 86-84-40-84-86 38-86 84-86zM540 512.667h442v-172h-86v-170h-170v170h-186c-34-100-130-170-242-170-142 0-256 114-256 256s114 256 256 256c112 0 208-70 242-170z" />
<glyph unicode="&#xe145;" glyph-name="add" d="M810 384.667h-256v-256h-84v256h-256v84h256v256h84v-256h256v-84z" />
<glyph unicode="&#xe157;" glyph-name="link2" d="M298 212.667c-118 0-212 96-212 214s94 214 212 214h172v-82h-172c-72 0-132-60-132-132s60-132 132-132h172v-82h-172zM682 468.667v-84h-340v84h340zM858 426.667c0 72-60 132-132 132h-172v82h172c118 0 212-96 212-214s-94-214-212-214h-172v82h172c72 0 132 60 132 132z" />
<glyph unicode="&#xe15b;" glyph-name="remove" d="M810 384.667h-596v84h596v-84z" />
<glyph unicode="&#xe15e;" glyph-name="reply" d="M426 554.667c298-42 428-256 470-470-106 150-256 218-470 218v-174l-298 298 298 298v-170z" />
<glyph unicode="&#xe19c;" glyph-name="battery_alert" d="M554 340.667v214h-84v-214h84zM554 170.667v86h-84v-86h84zM668 768.667c32 0 58-26 58-58v-654c0-32-26-56-58-56h-312c-32 0-58 24-58 56v654c0 32 26 58 58 58h70v84h172v-84h70z" />
<glyph unicode="&#xe226;" glyph-name="attach_file" d="M704 682.667h64v-490c0-130-104-236-234-236s-236 106-236 236v532c0 94 78 172 172 172s170-78 170-172v-448c0-58-48-106-106-106s-108 48-108 106v406h64v-406c0-24 20-42 44-42s42 18 42 42v448c0 58-48 108-106 108s-108-50-108-108v-532c0-94 78-172 172-172s170 78 170 172v490z" />
<glyph unicode="&#xe227;" glyph-name="attach_money" d="M504 472.667c96-26 200-64 200-186 0-88-66-136-150-152v-92h-128v92c-82 18-150 70-156 164h94c4-50 38-90 126-90 94 0 116 46 116 76 0 40-22 78-128 104-120 28-200 78-200 176 0 82 66 136 148 154v92h128v-94c90-22 136-88 138-162h-94c-2 54-32 90-108 90-72 0-114-34-114-80 0-40 32-66 128-92z" />
<glyph unicode="&#xe25a;" glyph-name="vertical_align_top" d="M170 810.667h684v-86h-684v86zM342 468.667l170 172 170-172h-128v-426h-84v426h-128z" />
<glyph unicode="&#xe310;" glyph-name="headset" d="M512 896.667c212 0 384-172 384-384v-300c0-70-58-128-128-128h-128v342h170v86c0 166-132 298-298 298s-298-132-298-298v-86h170v-342h-128c-70 0-128 58-128 128v300c0 212 172 384 384 384z" />
<glyph unicode="&#xe313;" glyph-name="keyboard_arrow_down" d="M316 604.667l196-196 196 196 60-60-256-256-256 256z" />
<glyph unicode="&#xe314;" glyph-name="keyboard_arrow_left" d="M658 252.667l-60-60-256 256 256 256 60-60-196-196z" />
<glyph unicode="&#xe315;" glyph-name="keyboard_arrow_right" d="M366 240.667l196 196-196 196 60 60 256-256-256-256z" />
<glyph unicode="&#xe316;" glyph-name="keyboard_arrow_up" d="M316 280.667l-60 60 256 256 256-256-60-60-196 196z" />
<glyph unicode="&#xe3c3;" glyph-name="crop_landscape" d="M810 212.667v428h-596v-428h596zM810 724.667c46 0 86-38 86-84v-428c0-46-40-84-86-84h-596c-46 0-86 38-86 84v428c0 46 40 84 86 84h596z" />
<glyph unicode="&#xe3c7;" glyph-name="dehaze" d="M86 704.667h852v-86h-852v86zM86 490.667h852v-86h-852v86zM86 276.667h852v-84h-852v84z" />
<glyph unicode="&#xe408;" glyph-name="navigate_before" d="M658 622.667l-196-196 196-196-60-60-256 256 256 256z" />
<glyph unicode="&#xe409;" glyph-name="navigate_next" d="M426 682.667l256-256-256-256-60 60 196 196-196 196z" />
<glyph unicode="&#xe41d;" glyph-name="style" d="M250 96.667v270l148-356h-62c-46 0-86 40-86 86zM336 564.667c24 0 42 20 42 44s-18 42-42 42-42-18-42-42 18-44 42-44zM940 258.667c18-44-2-94-46-112l-314-130c-10-4-22-6-34-6-34 0-64 20-78 52l-212 512c-4 12-6 22-6 34 0 32 20 62 52 76l316 130c12 4 22 6 34 6 32 0 62-20 76-52zM108 100.667c-44 18-64 66-46 110l104 250v-384z" />
<glyph unicode="&#xe425;" glyph-name="timer" d="M512 84.667c166 0 298 134 298 300s-132 298-298 298-298-132-298-298 132-300 298-300zM812 622.667c52-66 84-148 84-238 0-212-172-384-384-384s-384 172-384 384 172 384 384 384c90 0 174-34 240-86l60 62c22-18 42-38 60-60zM470 340.667v256h84v-256h-84zM640 896.667v-86h-256v86h256z" />
<glyph unicode="&#xe530;" glyph-name="directions_bus" d="M768 468.667v214h-512v-214h512zM704 212.667c36 0 64 28 64 64s-28 64-64 64-64-28-64-64 28-64 64-64zM320 212.667c36 0 64 28 64 64s-28 64-64 64-64-28-64-64 28-64 64-64zM170 256.667v426c0 150 154 170 342 170s342-20 342-170v-426c0-38-18-72-44-96v-76c0-24-18-42-42-42h-42c-24 0-44 18-44 42v44h-340v-44c0-24-20-42-44-42h-42c-24 0-42 18-42 42v76c-26 24-44 58-44 96z" />
<glyph unicode="&#xe531;" glyph-name="directions_car" d="M214 468.667h596l-64 192h-468zM746 256.667c36 0 64 28 64 64s-28 64-64 64-64-28-64-64 28-64 64-64zM278 256.667c36 0 64 28 64 64s-28 64-64 64-64-28-64-64 28-64 64-64zM808 682.667l88-256v-342c0-24-18-42-42-42h-44c-24 0-42 18-42 42v44h-512v-44c0-24-18-42-42-42h-44c-24 0-42 18-42 42v342l88 256c8 26 34 42 62 42h468c28 0 54-16 62-42z" />
<glyph unicode="&#xe532;" glyph-name="directions_boat" d="M256 682.667v-170l256 84 256-84v170h-512zM168 128.667l-80 284c-9.564 28.693 7.98 47.327 28 54l54 18v198c0 46 40 86 86 86h128v128h256v-128h128c46 0 86-40 86-86v-198l54-18c20.040-6.68 37.574-25.277 28-54l-80-284h-2c-68 0-130 36-172 84-42-48-102-84-170-84s-128 36-170 84c-42-48-104-84-172-84h-2zM854 42.667h84v-86h-84c-58 0-118 14-172 42-108-56-232-56-340 0-54-28-114-42-172-42h-84v86h84c60 0 120 20 172 56 104-72 236-72 340 0 52-36 112-56 172-56z" />
<glyph unicode="&#xe542;" glyph-name="local_car_wash" d="M214 384.667h596l-64 192h-468zM746 170.667c36 0 64 28 64 64s-28 64-64 64-64-28-64-64 28-64 64-64zM278 170.667c36 0 64 28 64 64s-28 64-64 64-64-28-64-64 28-64 64-64zM808 596.667l88-256v-340c0-24-18-44-42-44h-44c-24 0-42 20-42 44v42h-512v-42c0-24-18-44-42-44h-44c-24 0-42 20-42 44v340l88 256c8 26 34 44 62 44h468c28 0 54-18 62-44zM298 724.667c-36 0-64 28-64 64 0 42 64 116 64 116s64-74 64-116c0-36-28-64-64-64zM512 724.667c-36 0-64 28-64 64 0 42 64 116 64 116s64-74 64-116c0-36-28-64-64-64zM726 724.667c-36 0-64 28-64 64 0 42 64 116 64 116s64-74 64-116c0-36-28-64-64-64z" />
<glyph unicode="&#xe54e;" glyph-name="local_offer" d="M234 640.667c36 0 64 28 64 64s-28 64-64 64-64-28-64-64 28-64 64-64zM914 444.667c16-16 24-36 24-60s-8-44-24-60l-300-300c-16-16-36-24-60-24s-44 8-60 24l-384 384c-16 16-24 36-24 60v300c0 46 38 84 84 84h300c24 0 44-8 60-24z" />
<glyph unicode="&#xe553;" glyph-name="local_play" d="M664 222.667l-46 174 140 116-180 10-66 168-66-168-182-10 142-116-46-174 152 98zM854 426.667c0-46 38-86 84-86v-170c0-46-38-86-84-86h-684c-46 0-84 40-84 86v170c48 0 84 40 84 86s-38 86-84 86v170c0 46 38 86 84 86h684c46 0 84-40 84-86v-170c-46 0-84-40-84-86z" />
<glyph unicode="&#xe55e;" glyph-name="pin_drop" d="M214 84.667h596v-84h-596v84zM426 596.667c0-46 40-84 86-84 48 0 86 38 86 84s-40 86-86 86-86-40-86-86zM768 596.667c0-192-256-468-256-468s-256 276-256 468c0 142 114 256 256 256s256-114 256-256z" />
<glyph unicode="&#xe569;" glyph-name="near_me" d="M896 810.667l-322-768h-42l-112 292-292 112v42z" />
<glyph unicode="&#xe56c;" glyph-name="restaurant" d="M682 682.667c0 76 96 170 214 170v-852h-106v340h-108v342zM470 554.667v298h84v-298c0-90-70-164-160-170v-384h-106v384c-90 6-160 80-160 170v298h86v-298h84v298h86v-298h86z" />
<glyph unicode="&#xe570;" glyph-name="train2" d="M704 212.667c36 0 64 28 64 64s-28 64-64 64-64-28-64-64 28-64 64-64zM554 512.667h214v170h-214v-170zM470 512.667v170h-214v-170h214zM320 212.667c36 0 64 28 64 64s-28 64-64 64-64-28-64-64 28-64 64-64zM512 852.667c188 0 342-20 342-170v-406c0-82-68-148-150-148l64-64v-22h-86l-84 86h-162l-84-86h-96v22l64 64c-82 0-150 66-150 148v406c0 150 172 170 342 170z" />
<glyph unicode="&#xe5c4;" glyph-name="arrow_back" d="M854 468.667v-84h-520l238-240-60-60-342 342 342 342 60-60-238-240h520z" />
<glyph unicode="&#xe5c5;" glyph-name="arrow_drop_down" d="M298 512.667h428l-214-214z" />
<glyph unicode="&#xe5c7;" glyph-name="arrow_drop_up" d="M298 340.667l214 214 214-214h-428z" />
<glyph unicode="&#xe5c8;" glyph-name="arrow_forward" d="M512 768.667l342-342-342-342-60 60 238 240h-520v84h520l-238 240z" />
<glyph unicode="&#xe5cd;" glyph-name="close2" d="M810 664.667l-238-238 238-238-60-60-238 238-238-238-60 60 238 238-238 238 60 60 238-238 238 238z" />
<glyph unicode="&#xe5ce;" glyph-name="expand_less" d="M512 596.667l256-256-60-60-196 196-196-196-60 60z" />
<glyph unicode="&#xe5cf;" glyph-name="expand_more" d="M708 572.667l60-60-256-256-256 256 60 60 196-196z" />
<glyph unicode="&#xe5d8;" glyph-name="arrow_upward" d="M170 426.667l342 342 342-342-62-60-238 238v-520h-84v520l-240-238z" />
<glyph unicode="&#xe614;" glyph-name="event_available" d="M810 128.667v468h-596v-468h596zM810 810.667c46 0 86-40 86-86v-596c0-46-40-86-86-86h-596c-48 0-86 40-86 86v596c0 46 38 86 86 86h42v86h86v-86h340v86h86v-86h42zM706 466.667l-254-254-136 136 46 46 90-90 208 208z" />
<glyph unicode="&#xe616;" glyph-name="event_note" d="M598 340.667v-84h-300v84h300zM810 128.667v468h-596v-468h596zM810 810.667c46 0 86-40 86-86v-596c0-46-40-86-86-86h-596c-48 0-86 40-86 86v596c0 46 38 86 86 86h42v86h86v-86h340v86h86v-86h42zM726 512.667v-86h-428v86h428z" />
<glyph unicode="&#xe638;" glyph-name="confirmation_number" d="M554 576.667v84h-84v-84h84zM554 384.667v84h-84v-84h84zM554 192.667v84h-84v-84h84zM938 512.667c-46 0-84-40-84-86s38-86 84-86v-170c0-46-38-86-84-86h-684c-46 0-84 40-84 86v170c48 0 84 40 84 86s-38 86-84 86v170c0 48 38 86 84 86h684c46 0 84-38 84-86v-170z" />
<glyph unicode="&#xe63e;" glyph-name="wifi1" d="M214 384.667c166 164 432 164 596 0l-84-86c-118 118-310 118-428 0zM384 212.667c70 70 186 70 256 0l-128-128zM42 554.667c260 258 682 258 940 0l-86-86c-212 212-556 212-768 0z" />
<glyph unicode="&#xe645;" glyph-name="priority_high" d="M426 810.667h172v-512h-172v512zM426 128.667c0 48 38 84 86 84s86-36 86-84-38-86-86-86-86 38-86 86z" />
<glyph unicode="&#xe7f4;" glyph-name="notifications" d="M768 256.667l86-86v-42h-684v42l86 86v212c0 132 70 240 192 270v30c0 36 28 64 64 64s64-28 64-64v-30c122-30 192-140 192-270v-212zM512 0.667c-48 0-86 38-86 84h172c0-46-40-84-86-84z" />
<glyph unicode="&#xe7fb;" glyph-name="people" d="M682 384.667c100 0 300-50 300-150v-106h-256v106c0 64-34 112-84 148 14 2 28 2 40 2zM342 384.667c100 0 298-50 298-150v-106h-598v106c0 100 200 150 300 150zM342 468.667c-70 0-128 58-128 128s58 128 128 128 126-58 126-128-56-128-126-128zM682 468.667c-70 0-128 58-128 128s58 128 128 128 128-58 128-128-58-128-128-128z" />
<glyph unicode="&#xe7fd;" glyph-name="person" d="M512 340.667c114 0 342-56 342-170v-86h-684v86c0 114 228 170 342 170zM512 426.667c-94 0-170 76-170 170s76 172 170 172 170-78 170-172-76-170-170-170z" />
<glyph unicode="&#xe7ff;" glyph-name="person_outline" d="M512 384.667c114 0 342-58 342-172v-128h-684v128c0 114 228 172 342 172zM512 768.667c94 0 170-78 170-172s-76-170-170-170-170 76-170 170 76 172 170 172zM512 302.667c-126 0-260-62-260-90v-46h520v46c0 28-134 90-260 90zM512 686.667c-50 0-90-40-90-90s40-88 90-88 90 38 90 88-40 90-90 90z" />
<glyph unicode="&#xe80b;" glyph-name="public" d="M764 196.667c56 60 90 142 90 230 0 142-88 266-214 316v-18c0-46-40-84-86-84h-84v-86c0-24-20-42-44-42h-84v-86h256c24 0 42-18 42-42v-128h42c38 0 70-26 82-60zM470 88.667v82c-46 0-86 40-86 86v42l-204 204c-6-24-10-50-10-76 0-174 132-318 300-338zM512 852.667c236 0 426-190 426-426s-190-426-426-426-426 190-426 426 190 426 426 426z" />
<glyph unicode="&#xe80e;" glyph-name="whatshot" d="M500 128.667c114 0 204 90 204 204 0 60-8 116-24 172-44-58-122-94-198-110s-120-62-120-132c0-74 62-134 138-134zM576 910.667c166-134 278-340 278-570 0-188-154-340-342-340s-342 152-342 340c0 144 52 278 138 380v-16c0-88 66-158 154-158s146 70 146 158c0 92-32 206-32 206z" />
<glyph unicode="&#xe835;" glyph-name="check_box_outline_blank" d="M810 810.667c46 0 86-40 86-86v-596c0-46-40-86-86-86h-596c-46 0-86 40-86 86v596c0 46 40 86 86 86h596zM810 724.667h-596v-596h596v596z" />
<glyph unicode="&#xe837;" glyph-name="radio_button_checked" d="M512 84.667c188 0 342 154 342 342s-154 342-342 342-342-154-342-342 154-342 342-342zM512 852.667c236 0 426-190 426-426s-190-426-426-426-426 190-426 426 190 426 426 426zM512 640.667c118 0 214-96 214-214s-96-214-214-214-214 96-214 214 96 214 214 214z" />
<glyph unicode="&#xe838;" glyph-name="star1" d="M512 202.667l-264-160 70 300-232 202 306 26 120 282 120-282 306-26-232-202 70-300z" />
<glyph unicode="&#xe83a;" glyph-name="star_border" d="M512 280.667l160-96-42 182 142 124-188 16-72 172-72-172-188-16 142-124-42-182zM938 544.667l-232-202 70-300-264 160-264-160 70 300-232 202 306 26 120 282 120-282z" />
<glyph unicode="&#xe862;" glyph-name="assignment_turned_in" d="M426 212.667l342 342-60 60-282-280-110 110-60-60zM512 810.667c-24 0-42-18-42-42s18-44 42-44 42 20 42 44-18 42-42 42zM810 810.667c46 0 86-40 86-86v-596c0-46-40-86-86-86h-596c-46 0-86 40-86 86v596c0 46 40 86 86 86h178c18 50 64 86 120 86s102-36 120-86h178z" />
<glyph unicode="&#xe868;" glyph-name="bug_report" d="M598 426.667v86h-172v-86h172zM598 256.667v84h-172v-84h172zM854 596.667v-84h-90c2-14 4-30 4-44v-42h86v-86h-86v-42c0-14-2-28-4-42h90v-86h-120c-44-76-128-128-222-128s-178 52-222 128h-120v86h90c-2 14-4 28-4 42v42h-86v86h86v42c0 14 2 30 4 44h-90v84h120c20 34 46 62 78 84l-70 70 60 60 94-92c20 4 40 6 60 6s40-2 60-6l94 92 60-60-70-70c32-22 58-50 78-84h120z" />
<glyph unicode="&#xe86c;" glyph-name="check_circle" d="M426 212.667l384 384-60 62-324-324-152 152-60-60zM512 852.667c236 0 426-190 426-426s-190-426-426-426-426 190-426 426 190 426 426 426z" />
<glyph unicode="&#xe872;" glyph-name="delete" d="M810 768.667v-86h-596v86h148l44 42h212l44-42h148zM256 128.667v512h512v-512c0-46-40-86-86-86h-340c-46 0-86 40-86 86z" />
<glyph unicode="&#xe876;" glyph-name="done2" d="M384 246.667l452 454 60-60-512-512-238 238 58 60z" />
<glyph unicode="&#xe87a;" glyph-name="explore" d="M606 332.667l162 350-350-162-162-350zM512 852.667c236 0 426-190 426-426s-190-426-426-426-426 190-426 426 190 426 426 426zM512 472.667c26 0 46-20 46-46s-20-46-46-46-46 20-46 46 20 46 46 46z" />
<glyph unicode="&#xe87d;" glyph-name="favorite" d="M512 28.667l-62 56c-220 200-364 330-364 492 0 132 102 234 234 234 74 0 146-36 192-90 46 54 118 90 192 90 132 0 234-102 234-234 0-162-144-294-364-494z" />
<glyph unicode="&#xe87e;" glyph-name="favorite_border" d="M516 146.667c204 184 338 306 338 430 0 86-64 148-150 148-66 0-130-42-152-100h-80c-22 58-86 100-152 100-86 0-150-62-150-148 0-124 134-246 338-430l4-4zM704 810.667c132 0 234-102 234-234 0-162-144-292-364-492l-62-56-62 54c-220 200-364 332-364 494 0 132 102 234 234 234 74 0 146-36 192-90 46 54 118 90 192 90z" />
<glyph unicode="&#xe88f;" glyph-name="info_outline" d="M470 554.667v86h84v-86h-84zM512 84.667c188 0 342 154 342 342s-154 342-342 342-342-154-342-342 154-342 342-342zM512 852.667c236 0 426-190 426-426s-190-426-426-426-426 190-426 426 190 426 426 426zM470 212.667v256h84v-256h-84z" />
<glyph unicode="&#xe89e;" glyph-name="open_in_new" d="M598 810.667h298v-298h-86v152l-418-418-60 60 418 418h-152v86zM810 128.667v298h86v-298c0-46-40-86-86-86h-596c-48 0-86 40-86 86v596c0 46 38 86 86 86h298v-86h-298v-596h596z" />
<glyph unicode="&#xe8a1;" glyph-name="payment" d="M854 596.667v86h-684v-86h684zM854 170.667v256h-684v-256h684zM854 768.667c48 0 84-38 84-86v-512c0-48-36-86-84-86h-684c-48 0-84 38-84 86v512c0 48 36 86 84 86h684z" />
<glyph unicode="&#xe8ad;" glyph-name="print" d="M768 810.667v-170h-512v170h512zM810 426.667c24 0 44 18 44 42s-20 44-44 44-42-20-42-44 18-42 42-42zM682 128.667v212h-340v-212h340zM810 596.667c70 0 128-58 128-128v-256h-170v-170h-512v170h-170v256c0 70 58 128 128 128h596z" />
<glyph unicode="&#xe8b4;" glyph-name="room" d="M512 448.667c58 0 106 48 106 106s-48 106-106 106-106-48-106-106 48-106 106-106zM512 852.667c166 0 298-132 298-298 0-224-298-554-298-554s-298 330-298 554c0 166 132 298 298 298z" />
<glyph unicode="&#xe8b5;" glyph-name="schedule" d="M534 640.667v-224l192-114-32-54-224 136v256h64zM512 84.667c188 0 342 154 342 342s-154 342-342 342-342-154-342-342 154-342 342-342zM512 852.667c236 0 426-190 426-426s-190-426-426-426-426 190-426 426 190 426 426 426z" />
<glyph unicode="&#xe8cc;" glyph-name="shopping_cart" d="M726 170.667c46 0 84-40 84-86s-38-84-84-84-86 38-86 84 40 86 86 86zM42 852.667h140l40-84h632c24 0 42-20 42-44 0-8-2-14-6-20l-152-276c-14-26-42-44-74-44h-318l-38-70-2-6c0-6 4-10 10-10h494v-86h-512c-46 0-84 40-84 86 0 14 4 28 10 40l58 106-154 324h-86v84zM298 170.667c46 0 86-40 86-86s-40-84-86-84-84 38-84 84 38 86 84 86z" />
<glyph unicode="&#xe8f4;" glyph-name="visibility" d="M512 554.667c70 0 128-58 128-128s-58-128-128-128-128 58-128 128 58 128 128 128zM512 212.667c118 0 214 96 214 214s-96 214-214 214-214-96-214-214 96-214 214-214zM512 746.667c214 0 396-132 470-320-74-188-256-320-470-320s-396 132-470 320c74 188 256 320 470 320z" />
<glyph unicode="&#xe8f9;" glyph-name="work" d="M598 682.667v86h-172v-86h172zM854 682.667c48 0 84-38 84-86v-468c0-48-36-86-84-86h-684c-48 0-84 38-84 86v468c0 48 36 86 84 86h172v86c0 48 36 84 84 84h172c48 0 84-36 84-84v-86h172z" />
<glyph unicode="&#xe900;" glyph-name="adult" horiz-adv-x="488" d="M97.524 694.857h292.571v-438.857h-292.571v438.857zM97.524 451.048h97.524v-536.381h-97.524v536.381zM292.571 451.048h97.524v-536.381h-97.524v536.381zM48.762 694.857h48.762v-97.524h-48.762v97.524zM390.095 694.857h48.762v-97.524h-48.762v97.524zM0 694.857h48.762v-438.857h-48.762v438.857zM438.857 694.857h48.762v-438.857h-48.762v438.857zM341.333 841.143c0-53.861-43.663-97.524-97.524-97.524s-97.524 43.663-97.524 97.524c0 53.861 43.663 97.524 97.524 97.524s97.524-43.663 97.524-97.524zM48.762-36.571h146.286v-48.762h-146.286v48.762zM292.571-36.571h146.286v-48.762h-146.286v48.762z" />
<glyph unicode="&#xe901;" glyph-name="child" horiz-adv-x="576" d="M128 618.667h320v-384h-320v384zM128 234.667h128v-320h-128v320zM320 234.667h128v-320h-128v320zM64 618.667h64v-128h-64v128zM448 618.667h64v-128h-64v128zM0 618.667h64v-384h-64v384zM512 618.667h64v-384h-64v384zM416 810.667c0-70.692-57.308-128-128-128s-128 57.308-128 128c0 70.692 57.308 128 128 128s128-57.308 128-128zM64-21.333h192v-64h-192v64zM320-21.333h192v-64h-192v64z" />
<glyph unicode="&#xe902;" glyph-name="search" d="M731.853 294.622h-46.080l-16.384 15.821c57.134 66.262 91.93 153.188 91.93 248.242 0 210.494-170.639 381.133-381.133 381.133s-381.133-170.639-381.133-381.133c0-210.494 170.639-381.133 381.133-381.133 95.054 0 181.98 34.797 248.736 92.347l-0.494-0.416 15.821-16.384v-46.080l292.71-292.352 87.040 87.040zM380.57 294.622c-145.513 0-263.475 117.962-263.475 263.475s117.962 263.475 263.475 263.475c145.513 0 263.475-117.962 263.475-263.475v0c0-0.106 0-0.233 0-0.359 0-145.315-117.801-263.117-263.117-263.117-0.126 0-0.252 0-0.378 0h0.020z" />
<glyph unicode="&#xe903;" glyph-name="checkin" horiz-adv-x="922" d="M757.76 17.067h-655.36v563.2h716.8v-358.4h102.4v512c0 56.32-46.080 102.4-102.4 102.4h-51.2v102.4h-102.4v-102.4h-409.6v102.4h-102.4v-102.4h-51.2c-56.32 0-102.4-46.080-102.4-102.4 0 0 0 0 0 0v-716.8c0-56.32 46.080-102.4 102.4-102.4h716.8c56.32 0 102.4 46.080 102.4 102.4h-163.84zM614.4 477.867h102.4v-102.4h-102.4v102.4zM204.8 477.867h102.4v-102.4h-102.4v102.4zM409.6 477.867h102.4v-102.4h-102.4v102.4zM256 68.267h665.6v102.4h-409.6v153.6l-256-256z" />
<glyph unicode="&#xe904;" glyph-name="checkout" horiz-adv-x="973" d="M870.4 836.267h-51.2v102.4h-102.4v-102.4h-409.6v102.4h-102.4v-102.4h-51.2c-56.32 0-102.4-46.080-102.4-102.4v0-512l102.4 102.4v256h716.8v-563.2h-819.2c0-56.32 46.080-102.4 102.4-102.4h716.8c56.32 0 102.4 46.080 102.4 102.4v716.8c0 56.32-46.080 102.4-102.4 102.4zM0 68.267h665.6v102.4h-409.6v153.6l-256-256zM665.6 477.867h102.4v-102.4h-102.4v102.4zM256 477.867h102.4v-102.4h-102.4v102.4zM460.8 477.867h102.4v-102.4h-102.4v102.4z" />
<glyph unicode="&#xe905;" glyph-name="home" horiz-adv-x="1205" d="M481.882-85.333v361.412h240.941v-361.412h301.176v481.882h180.706l-602.353 542.118-602.353-542.118h180.706v-481.882z" />
<glyph unicode="&#xe906;" glyph-name="hotel" horiz-adv-x="970" d="M646.737 453.614v323.368l-161.684 161.684-161.684-161.684v-107.789h-323.368v-754.526h970.105v538.947zM215.579 22.456h-107.789v107.789h107.789zM215.579 238.035h-107.789v107.789h107.789zM215.579 453.614h-107.789v107.789h107.789zM538.947 22.456h-107.789v107.789h107.789zM538.947 238.035h-107.789v107.789h107.789zM538.947 453.614h-107.789v107.789h107.789zM538.947 669.193h-107.789v107.789h107.789zM862.316 22.456h-107.789v107.789h107.789zM862.316 238.035h-107.789v107.789h107.789z" />
<glyph unicode="&#xe907;" glyph-name="landmark" horiz-adv-x="717" d="M665.6 631.467c0 169.662-137.538 307.2-307.2 307.2s-307.2-137.538-307.2-307.2v0c0-230.4 307.2-563.2 307.2-563.2s307.2 332.8 307.2 563.2zM256 631.467c0 56.554 45.846 102.4 102.4 102.4s102.4-45.846 102.4-102.4c0-56.554-45.846-102.4-102.4-102.4v0c-56.484 0.174-102.226 45.916-102.4 102.383v0.017zM0 17.067v-102.4h716.8v102.4z" />
<glyph unicode="&#xe908;" glyph-name="airport" horiz-adv-x="973" d="M972.8 221.867v102.4l-409.6 256v281.6c0 42.415-34.385 76.8-76.8 76.8s-76.8-34.385-76.8-76.8v0-281.6l-409.6-256v-102.4l409.6 128v-281.6l-102.4-76.8v-76.8l179.2 51.2 179.2-51.2v76.8l-102.4 76.8v281.6z" />
<glyph unicode="&#xe909;" glyph-name="star" horiz-adv-x="1078" d="M538.947 115.694l333.069-201.027-88.387 378.88 294.265 254.922-387.503 32.876-151.444 357.322-151.444-357.322-387.503-32.876 294.265-254.922-88.387-378.88z" />
<glyph unicode="&#xe90a;" glyph-name="viewed" horiz-adv-x="1502" d="M750.933 938.667c-339.391-0.208-629.779-209.792-749.006-506.568l-1.927-5.432c121.012-302.31 411.489-511.96 750.933-511.96s629.922 209.651 749.010 506.53l1.923 5.43c-121.155 302.208-411.542 511.792-750.907 512h-0.026zM750.933 85.334c-188.513 0-341.333 152.82-341.333 341.333s152.82 341.333 341.333 341.333c188.513 0 341.333-152.82 341.333-341.333v0c0-188.513-152.82-341.333-341.333-341.333v0zM750.933 631.467c-113.108 0-204.8-91.692-204.8-204.8s91.692-204.8 204.8-204.8c113.108 0 204.8 91.692 204.8 204.8v0c0 113.108-91.692 204.8-204.8 204.8v0z" />
<glyph unicode="&#xe90b;" glyph-name="arrow-down" d="M198.38 674.667l307.237-306.574 307.237 306.574 94.379-94.379-401.62-401.62-401.62 401.62z" />
<glyph unicode="&#xe90c;" glyph-name="close" d="M1024 856.869l-103.131 103.131-408.869-408.869-408.869 408.869-103.131-103.131 408.869-408.869-408.869-408.869 103.131-103.131 408.869 408.869 408.869-408.869 103.131 103.131-408.869 408.869z" />
<glyph unicode="&#xe90d;" glyph-name="sort-down" horiz-adv-x="1513" d="M0.085 960h504.32v-170.667h-504.32zM0.085-64v170.667h1513.045v-170.667zM0.085 533.333h1008.725v-170.667h-1008.725z" />
<glyph unicode="&#xe90e;" glyph-name="sort-up" horiz-adv-x="1513" d="M0-64h504.32v170.667h-504.32zM0 960v-170.667h1513.045v170.667zM0 362.667h1008.725v170.667h-1008.725z" />
<glyph unicode="&#xe90f;" glyph-name="cablecar" d="M783.346 590.838c-5.964 6.476-14.359 10.158-23.158 10.158h-401.284c-8.801 0-17.199-3.682-23.16-10.158-71.774-77.925-112.938-189.981-112.938-307.442 0-111.040 37.465-225.51 112.938-307.445 5.963-6.473 14.361-10.153 23.16-10.153h401.28c8.799 0 17.199 3.682 23.162 10.153 75.244 81.686 112.94 195.952 112.94 307.445 0 117.459-41.162 229.521-112.94 307.442zM528.058 309.545h-241.492c5.159 87.046 35.943 168.533 86.546 228.475h154.947v-228.475h-0.002zM591.033 309.545v228.475h154.944c50.608-59.941 81.386-141.427 86.551-228.475h-241.495zM966.538 860.638c-2.535 17.204-18.519 29.118-35.747 26.551l-425.618-62.814c-17.283 37.245-55.018 63.153-98.711 63.153-54.832 0-100.294-40.791-107.695-93.616l-230.753-34.054c-17.204-2.539-29.092-18.541-26.553-35.747 2.311-15.645 15.755-26.894 31.11-26.894 1.53 0 3.078 0.11 4.638 0.344l231.197 34.123c9.826-20.388 25.838-37.249 45.572-48.166v-84.185h169.836l-64.873 45.37v38.808c28.873 15.974 49.759 44.68 55.003 78.5l426.041 62.878c17.206 2.539 29.095 18.541 26.553 35.747zM406.46 732.954c-25.254 0-45.798 20.544-45.798 45.798s20.544 45.798 45.798 45.798c25.254 0 45.798-20.542 45.798-45.798 0.003-25.254-20.542-45.798-45.798-45.798z" />
<glyph unicode="&#xe910;" glyph-name="price" horiz-adv-x="579" d="M311.788 510.579c-129.178 33.611-170.69 68.262-170.69 122.317 0 62.025 57.451 105.269 153.572 105.269 101.25 0 138.603-48.511 142.207-119.476h125.713c-2.882 107.248-79.802 195.722-181.362 216.321l-1.456 0.247v124.743h-170.413v-122.872c-110.397-23.909-199.103-95.567-199.103-205.341 0-131.673 108.665-196.816 267.365-234.932 142.207-34.166 170.69-84.201 170.69-137.079 0-39.225-27.721-101.804-153.572-101.804-117.189 0-163.274 52.323-169.512 119.476h-125.228c9.238-113.555 96.836-204.076 208.206-217.768l1.154-0.116v-123.426h170.413v122.179c110.883 20.79 199.103 85.31 199.103 201.945 0.277 161.542-137.979 216.775-267.088 250.317z" />
<glyph unicode="&#xe911;" glyph-name="distance" d="M417.905 495.993h-153.596c-19.204 43.2-62.404 71.995-110.396 71.995-67.196 0-120.002-52.798-120.002-120.002s52.799-120.002 120.002-120.002c47.992 0 91.192 28.796 110.396 71.996h153.596v-168.008l216 216-216 216v-168.007zM873.901 568.002c-47.993 0-91.193-28.796-110.396-71.996h-115.196l47.993-47.992-47.993-47.992h115.196c19.204-43.2 62.404-71.996 110.396-71.996 67.196 0 120.001 52.799 120.001 120.002s-52.798 120.002-120.001 120.002z" />
<glyph unicode="&#xe912;" glyph-name="bed" horiz-adv-x="1502" d="M505.613 423.461c83.419 0 147.2 63.781 147.2 147.2s-63.781 147.2-147.2 147.2-147.2-63.781-147.2-147.2 63.781-147.2 147.2-147.2zM1094.413 717.861h-392.539v-343.461h-392.539v441.6h-98.139v-736h98.139v147.2h883.2v-147.2h98.139v441.6c0 107.941-88.32 196.261-196.261 196.261z" />
<glyph unicode="&#xe913;" glyph-name="breakfast" horiz-adv-x="1138" d="M1024 960h-910.222v-568.889c0-128.948 98.607-227.556 227.556-227.556h341.333c128.948 0 227.556 98.607 227.556 227.556v174.459h113.778c60.681 0 113.778 53.096 113.778 113.778v166.874c0 60.681-53.096 113.778-113.778 113.778zM1024 671.763h-113.778v174.459h113.778v-174.459zM0-64h1024v113.778h-1024v-113.778z" />
<glyph unicode="&#xe914;" glyph-name="calendar" horiz-adv-x="922" d="M819.2 857.6h-51.2v102.4h-102.4v-102.4h-409.6v102.4h-102.4v-102.4h-51.2c-56.32 0-102.4-46.080-102.4-102.4 0 0 0 0 0 0v-716.8c0-56.32 46.080-102.4 102.4-102.4h716.8c56.32 0 102.4 46.080 102.4 102.4v716.8c0 56.32-46.080 102.4-102.4 102.4zM819.2 38.4h-716.8v563.2h716.8v-563.2zM614.4 499.2h102.4v-102.4h-102.4v102.4zM204.8 499.2h102.4v-102.4h-102.4v102.4zM409.6 499.2h102.4v-102.4h-102.4v102.4zM614.4 294.4h102.4v-102.4h-102.4v102.4zM204.8 294.4h102.4v-102.4h-102.4v102.4zM409.6 294.4h102.4v-102.4h-102.4v102.4z" />
<glyph unicode="&#xe915;" glyph-name="collections" d="M1024 243.2v614.4c0 56.554-45.846 102.4-102.4 102.4v0h-614.4c-56.554 0-102.4-45.846-102.4-102.4v0-614.4c0-56.554 45.846-102.4 102.4-102.4v0h614.4c56.554 0 102.4 45.846 102.4 102.4v0zM460.8 448l103.97-138.786 152.030 189.986 204.8-256h-614.4zM0 755.2v-716.8c0-56.554 45.846-102.4 102.4-102.4v0h716.8v102.4h-716.8v716.8z" />
<glyph unicode="&#xe916;" glyph-name="dinner" horiz-adv-x="922" d="M409.6 605.013h-102.4v354.987h-102.4v-354.987h-102.4v354.987h-102.4v-354.987c0-109.227 81.92-197.973 191.147-204.8v-464.213h129.707v464.213c109.227 6.827 191.147 95.573 191.147 204.8v354.987h-102.4v-354.987zM669.013 755.2v-409.6h129.707v-409.6h129.707v1024c-150.187 0-259.413-116.053-259.413-204.8z" />
<glyph unicode="&#xe917;" glyph-name="done" horiz-adv-x="1345" d="M427.94 149.97l-320.955 320.955-106.985-106.985 427.94-427.94 917.015 917.015-106.985 106.985z" />
<glyph unicode="&#xe918;" glyph-name="meal" horiz-adv-x="1075" d="M303.824 386.11l157.538 157.538-393.846 393.846c-90.022-90.022-90.022-230.681 0-320.703l236.308-230.681zM680.791 487.385c106.901-39.385 225.055-5.626 298.198 78.769 106.901 106.901 129.407 264.44 45.011 343.209-84.396 84.396-236.308 61.89-343.209-45.011-84.396-73.143-112.527-191.297-78.769-298.198l-551.385-551.385 78.769-78.769 388.22 388.22 388.22-388.22 78.769 78.769-388.22 388.22c5.626 0 84.396 84.396 84.396 84.396z" />
<glyph unicode="&#xe919;" glyph-name="money" d="M512 960c-282.77 0-512-229.23-512-512s229.23-512 512-512c282.77 0 512 229.23 512 512v0c-0.1 282.729-229.27 511.9-511.99 512h-0.010zM584.177 136.177v-97.777h-136.543v98.831c-87.567 18.432-161.792 74.752-167.439 174.080h100.147c5.12-53.745 41.984-95.759 135.665-95.759 100.352 0 122.88 50.176 122.88 81.393 0 42.511-22.528 82.447-136.719 109.568-126.976 30.72-214.016 82.944-214.016 187.919 0 88.064 71.153 145.408 159.247 164.367v98.801h136.689v-99.825c82.459-16.697 143.972-87.679 145.931-173.374l0.004-0.209h-100.352c-2.545 56.847-32.768 95.759-113.664 95.759-76.8 0-122.88-34.816-122.88-83.968 0-43.008 33.265-71.183 136.719-97.777s214.016-71.183 214.016-200.207c-0.527-93.623-70.656-144.881-159.744-161.792z" />
<glyph unicode="&#xe91a;" glyph-name="shower" horiz-adv-x="1078" d="M377.275 798.319c0-59.535-48.262-107.797-107.797-107.797s-107.797 48.262-107.797 107.797c0 59.535 48.262 107.797 107.797 107.797s107.797-48.262 107.797-107.797zM493.126 474.957c-16.559 11.639-31.007 24.442-43.894 38.684l-0.198 0.223-75.322 83.549c-10.29 11.154-22.645 20.228-36.483 26.645l-0.714 0.297c-15.087 7.62-32.856 12.174-51.667 12.398l-0.074 0.001h-1.622c-66.935-0.099-121.169-54.333-121.268-121.259v-40.568h-161.884v-431.13c0.181-59.462 48.335-107.616 107.78-107.797h862.307c59.462 0.181 107.616 48.335 107.797 107.78v431.176zM269.42 43.797h-107.739v323.362h107.739zM484.986 43.797h-107.739v323.362h107.797zM700.551 43.797h-107.71v323.362h107.797zM916.116 43.797h-107.71v323.362h107.797zM897.343 805.851l-3.766 3.766c-23.63 24.457-38.192 57.808-38.192 94.56 0 8.467 0.773 16.753 2.252 24.792l-0.128-0.836 4.809 31.867h-101.887l-3.245-23.176c-1.453-9.742-2.283-20.985-2.283-32.422 0-66.132 27.744-125.784 72.228-167.952l0.104-0.098 3.766-3.245c23.65-24.461 38.225-57.826 38.225-94.595 0-8.475-0.774-16.77-2.256-24.816l0.128 0.837-5.794-31.867h102.93l3.245 23.176c1.533 9.939 2.408 21.404 2.408 33.074 0 65.824-27.852 125.143-72.414 166.814l-0.13 0.12zM681.778 805.851l-3.766 3.766c-23.66 24.463-38.24 57.834-38.24 94.611 0 8.449 0.77 16.718 2.242 24.741l-0.127-0.836 4.838 31.867h-101.858l-3.245-23.176c-1.453-9.742-2.283-20.985-2.283-32.422 0-66.132 27.744-125.784 72.228-167.952l0.104-0.098 3.766-3.245c23.65-24.461 38.225-57.826 38.225-94.595 0-8.475-0.774-16.77-2.256-24.816l0.128 0.837-5.794-31.867h102.843l3.245 23.176c1.537 9.954 2.415 21.435 2.415 33.122 0 65.8-27.832 125.099-72.365 166.768l-0.128 0.119z" />
<glyph unicode="&#xe91b;" glyph-name="smoke" horiz-adv-x="1205" d="M0 116.706h903.529v-180.706h-903.529v180.706zM1114.353 116.706h90.353v-180.706h-90.353v180.706zM963.765 116.706h90.353v-180.706h-90.353v180.706zM1017.976 616.659c78.306 78.306 78.306 204.8 0 283.106-36.141 36.141-90.353 60.235-144.565 60.235v-90.353c60.235 0 114.447-48.188 114.447-108.424s-48.188-114.447-108.424-114.447c0 0 0 0 0 0v-90.353c132.518 0 240.941-108.424 240.941-240.941 0 0 0 0 0 0v-132.518h90.353v132.518c-6.024 126.494-78.306 240.941-192.753 301.176zM843.294 466.071h-90.353c-60.235 6.024-114.447 54.212-114.447 120.471 0 60.235 48.188 108.424 108.424 108.424 0 0 0 0 6.024 0v90.353c-114.447 0-204.8-90.353-204.8-204.8s90.353-198.776 204.8-198.776h90.353c66.259 0 114.447-48.188 120.471-114.447 0-6.024 0-6.024 0-12.047v-78.306h90.353v96.376c-6.024 114.447-96.376 198.776-210.824 192.753 0 0 0 0 0 0z" />
<glyph unicode="&#xe91c;" glyph-name="unsmoke" horiz-adv-x="975" d="M0 764.952l341.333-341.333h-341.333v-146.286h487.619l341.333-341.333 63.39 58.514-828.952 828.952-63.39-58.514zM902.095 423.619h73.143v-146.286h-73.143v146.286zM780.19 423.619h73.143v-146.286h-73.143v146.286zM824.076 818.59c29.257 29.257 48.762 73.143 48.762 117.029h-73.143c0-48.762-39.010-87.771-92.648-87.771v-73.143c107.276 0 195.048-87.771 195.048-195.048 0 0 0 0 0 0v-107.276h73.143v102.4c0 102.4-58.514 199.924-151.162 243.81zM609.524 633.295h73.143c53.638 0 92.648-39.010 97.524-92.648 0-4.876 0-4.876 0-9.752v-58.514h73.143v78.019c-4.876 87.771-78.019 156.038-170.667 156.038h-73.143c-48.762 4.876-92.648 43.886-92.648 97.524 0 48.762 39.010 87.771 87.771 87.771 0 0 0 0 4.876 0v68.267c-92.648 0-165.79-73.143-165.79-160.914s73.143-165.79 165.79-165.79zM731.429 282.21v141.41h-141.41l141.41-141.41z" />
<glyph unicode="&#xe91d;" glyph-name="wifi" horiz-adv-x="1448" d="M0 660.277l131.668-131.697c151.657 151.637 361.159 245.425 592.565 245.425s440.908-93.788 592.566-245.426l-0.001 0.001 131.697 131.697c-185.418 185.207-441.457 299.746-724.248 299.746s-538.831-114.539-724.258-299.756l0.010 0.010zM526.731 133.546l197.517-197.517 197.517 197.517c-50.507 50.641-120.353 81.972-197.517 81.972s-147.010-31.331-197.511-81.966l-0.006-0.006zM263.366 396.912l131.668-131.668c84.267 84.211 200.651 136.292 329.2 136.292s244.932-52.081 329.202-136.295l-0.003 0.003 131.668 131.668c-118.030 117.765-280.945 190.587-460.868 190.587s-342.839-72.822-460.88-190.599l0.012 0.012z" />
<glyph unicode="&#xe91e;" glyph-name="tip" d="M460.8 294.4h102.4v-102.4h-102.4zM460.8 704h102.4v-307.2h-102.4zM511.488 960c-282.55-0.292-511.488-229.41-511.488-512 0-282.77 229.23-512 512-512s512 229.23 512 512v0c0 282.77-229.23 512-512 512-0.18 0-0.36 0-0.54 0h0.028zM512 38.4c-226.216 0-409.6 183.384-409.6 409.6s183.384 409.6 409.6 409.6c226.216 0 409.6-183.384 409.6-409.6v0c0-226.216-183.384-409.6-409.6-409.6v0z" />
<glyph unicode="&#xe91f;" glyph-name="checkbox" d="M910.222 960h-796.444c-62.838 0-113.778-50.94-113.778-113.778v0-796.444c0-62.838 50.94-113.778 113.778-113.778v0h796.444c62.838 0 113.778 50.94 113.778 113.778v0 796.444c0 62.838-50.94 113.778-113.778 113.778v0zM398.222 163.556l-284.444 284.444 80.213 80.213 204.231-203.662 431.787 431.787 80.213-80.782z" />
<glyph unicode="&#xe920;" glyph-name="airplanemode" d="M896 256v85.333l-341.333 213.333v234.667c0 35.413-28.587 64-64 64s-64-28.587-64-64v-234.667l-341.333-213.333v-85.333l341.333 106.667v-234.667l-85.333-64v-64l149.333 42.667 149.333-42.667v64l-85.333 64v234.667l341.333-106.667z" />
<glyph unicode="&#xe921;" glyph-name="boat" d="M853.333 42.667c-59.307 0-118.613 20.053-170.667 56.32-104.107-72.96-237.227-72.96-341.333 0-52.053-36.267-111.36-56.32-170.667-56.32h-85.333v-85.333h85.333c58.88 0 116.907 14.933 170.667 42.24 107.52-55.040 233.813-55.040 341.333 0 53.76-27.733 111.787-42.24 170.667-42.24h85.333v85.333h-85.333zM168.533 128h2.133c68.267 0 128.853 37.547 170.667 85.333 41.813-47.787 102.4-85.333 170.667-85.333s128.853 37.547 170.667 85.333c41.813-47.787 102.4-85.333 170.667-85.333h2.133l80.64 285.013c3.413 11.093 2.56 23.040-2.56 33.28s-14.507 17.92-25.6 21.333l-54.613 17.92v197.12c0 46.933-38.4 85.333-85.333 85.333h-128v128h-256v-128h-128c-46.933 0-85.333-38.4-85.333-85.333v-197.12l-55.040-17.92c-11.093-3.413-20.48-11.093-25.6-21.333s-6.4-22.187-2.56-33.28l81.067-285.013zM256 682.667h512v-169.387l-256 84.053-256-84.053v169.387z" />
<glyph unicode="&#xe922;" glyph-name="bus" d="M170.667 256c0-37.547 16.64-71.253 42.667-94.72v-75.947c0-23.467 19.2-42.667 42.667-42.667h42.667c23.467 0 42.667 19.2 42.667 42.667v42.667h341.333v-42.667c0-23.467 19.2-42.667 42.667-42.667h42.667c23.467 0 42.667 19.2 42.667 42.667v75.947c26.027 23.467 42.667 57.173 42.667 94.72v426.667c0 149.333-152.747 170.667-341.333 170.667s-341.333-21.333-341.333-170.667v-426.667zM320 213.334c-35.413 0-64 28.587-64 64s28.587 64 64 64 64-28.587 64-64-28.587-64-64-64zM704 213.334c-35.413 0-64 28.587-64 64s28.587 64 64 64 64-28.587 64-64-28.587-64-64-64zM768 469.334h-512v213.333h512v-213.333z" />
<glyph unicode="&#xe923;" glyph-name="walk" d="M576 704c46.933 0 85.333 38.4 85.333 85.333s-38.4 85.333-85.333 85.333-85.333-38.4-85.333-85.333 38.4-85.333 85.333-85.333zM418.133 558.934l-119.467-601.6h89.6l76.8 341.333 89.6-85.333v-256h85.333v320l-89.6 85.333 25.6 128c55.467-64 140.8-106.667 234.667-106.667v85.333c-81.067 0-149.333 42.667-183.467 102.4l-42.667 68.267c-17.067 25.6-42.667 42.667-72.533 42.667-12.8 0-21.333-4.267-34.133-4.267l-221.867-93.867v-200.533h85.333v145.067l76.8 29.867z" />
<glyph unicode="&#xe924;" glyph-name="train" d="M512 853.334c-170.667 0-341.333-21.333-341.333-170.667v-405.333c0-82.347 66.987-149.333 149.333-149.333l-64-64v-21.333h95.147l85.333 85.333h160.853l85.333-85.333h85.333v21.333l-64 64c82.347 0 149.333 66.987 149.333 149.333v405.333c0 149.333-152.747 170.667-341.333 170.667zM320 213.334c-35.413 0-64 28.587-64 64s28.587 64 64 64 64-28.587 64-64-28.587-64-64-64zM469.333 512h-213.333v170.667h213.333v-170.667zM554.667 512v170.667h213.333v-170.667h-213.333zM704 213.334c-35.413 0-64 28.587-64 64s28.587 64 64 64 64-28.587 64-64-28.587-64-64-64z" />
<glyph unicode="&#xe925;" glyph-name="left-triangle" d="M291.038-85.333h441.923v1024l-441.923-1024z" />
<glyph unicode="&#xe926;" glyph-name="gavel" d="M164 534.667l240-242-120-120-242 240zM526 896.667l240-242-120-120-242 240zM224 594.667l120 120 604-604-120-120zM42 42.667h512v-86h-512v86z" />
<glyph unicode="&#xe927;" glyph-name="g_translate" d="M896 84.667v556c0 24-18 42-42 42h-376l50-172h82v44h46v-44h154v-44h-54c-14-54-44-106-82-150l116-114-30-32-116 114-38-38 34-118-86-86h300c24 0 42 18 42 42zM596 420.667c10-20 26-46 48-72 52 62 66 118 66 118h-170l14-46h42zM564 388.667l26-94 24 22c-20 22-36 46-50 72zM474 486.667c0 9.841-0.281 22.561-4 30h-168v-66h94c-6-26-32-64-90-64-56 0-102 48-102 104s46 104 102 104c32 0 52-14 64-26l4-2 52 50-4 2c-32 30-72 46-116 46-96 0-174-78-174-174s78-174 174-174c98 0 168 70 168 170zM854 724.667c46 0 84-38 84-84v-556c0-46-38-84-84-84h-342l-42 128h-300c-46 0-84 38-84 84v556c0 46 38 84 84 84h256l38-128h390z" />
<glyph unicode="&#xe928;" glyph-name="link" d="M123.2 448c0 82.183 66.613 148.8 148.8 148.8v0h192v91.2h-192c-132.557 0-240-107.447-240-240s107.443-240 240-240v0h192v91.2h-192c-82.183 0-148.8 66.613-148.8 148.8v0zM320 400h384v96h-384zM752 688h-192v-91.2h192c82.183 0 148.8-66.613 148.8-148.8s-66.617-148.8-148.8-148.8h-192v-91.2h192c132.557 0 240 107.447 240 240s-107.443 240-240 240v0z" />
<glyph unicode="&#xe929;" glyph-name="chevron-right" d="M368.18 824l-88.36-88.36 287.008-287.64-287.008-287.64 88.36-88.36 376 376z" />
<glyph unicode="&#xe92a;" glyph-name="chevron-down" d="M809.323 687.999l-297.326-296.684-297.326 296.684-91.335-91.335 388.664-388.664 388.664 388.664z" />
<glyph unicode="&#xe92b;" glyph-name="ntdw" horiz-adv-x="1412" d="M63.559 542.455h105.931l151.834-278.952 52.966-112.993h3.531c-7.062 52.966-14.124 123.586-14.124 183.614v208.331h98.869v-522.593h-105.931l-151.834 278.952-52.966 112.993c3.531-56.497 14.124-123.586 14.124-183.614v-208.331h-102.4v522.593zM695.614 454.179h-148.303v88.276h399.007v-88.276h-148.303v-434.317h-105.931v434.317zM1278.234 411.807c-28.248 28.248-52.966 42.372-91.807 42.372-42.372 0-63.559-21.186-63.559-60.028 0-88.276 215.393-74.152 215.393-233.048 0-77.683-42.372-134.179-123.586-148.303v-81.214h-70.621v77.683c-49.434 7.062-102.4 28.248-141.241 60.028l45.903 70.621c38.841-31.779 77.683-49.434 116.524-49.434 49.434 0 70.621 21.186 70.621 63.559 0 95.338-215.393 88.276-215.393 233.048 0 77.683 45.903 130.648 120.055 144.772v84.745h70.621v-81.214c49.434-7.062 88.276-31.779 116.524-63.559l-49.434-60.028z" />
<glyph unicode="&#xe92c;" glyph-name="ntd" horiz-adv-x="1342" d="M70.621 538.924h67.090l187.145-324.855 56.497-105.931h3.531c-3.531 52.966-7.062 109.462-7.062 162.428v268.359h63.559v-519.062h-67.090l-187.145 328.386-56.497 105.931h-7.062c3.531-52.966 7.062-105.931 7.062-162.428v-271.89h-60.028v519.062zM688.552 482.428h-155.366v56.497h377.821v-56.497h-155.366v-462.566h-67.090v462.566zM1232.331 432.993c-28.248 28.248-52.966 45.903-95.338 45.903-49.434 0-81.214-31.779-81.214-77.683 0-116.524 222.455-84.745 222.455-254.234 0-74.152-45.903-127.117-123.586-137.71v-81.214h-45.903v77.683c-49.434 3.531-102.4 28.248-134.179 60.028l31.779 42.372c31.779-28.248 74.152-52.966 120.055-52.966 60.028 0 88.276 31.779 88.276 81.214 0 127.117-222.455 98.869-222.455 254.234 0 70.621 45.903 120.055 116.524 130.648v88.276h45.903v-77.683c49.434-7.062 84.745-28.248 112.993-60.028l-35.31-38.841z" />
<glyph unicode="&#xe92d;" glyph-name="thunder" d="M781.56 534.751c-5.612 8.723-15.25 13.908-25.559 13.908h-213.497v335.495c0 14.396-10.065 26.84-24.156 29.829-14.335 3.050-28.365-4.331-34.221-17.446l-243.997-548.992c-4.209-9.394-3.294-20.374 2.318-28.975 5.612-8.662 15.25-13.908 25.559-13.908h213.497v-335.495c0-14.396 10.065-26.84 24.156-29.829 2.135-0.427 4.27-0.671 6.344-0.671 11.834 0 22.875 6.893 27.877 18.117l243.997 548.992c4.148 9.455 3.355 20.313-2.318 28.975z" />
<glyph unicode="&#xe92e;" d="M1013.759 415.031c0 36.305-3.258 71.215-9.309 104.727h-482.21v-198.051h275.548c-11.869-64-47.942-118.225-102.167-154.531v-128.465h165.469c96.815 89.135 152.669 220.393 152.669 376.319v0z" />
<glyph unicode="&#xe92f;" d="M522.24-85.332c138.24 0 254.138 45.847 338.85 124.044l-165.469 128.465c-45.847-30.72-104.495-48.873-173.382-48.873-133.353 0-246.225 90.065-286.486 211.084h-171.055v-132.655c84.247-167.331 257.396-282.064 457.541-282.064v0z" />
<glyph unicode="&#xe930;" d="M235.754 329.387c-10.24 30.72-16.058 63.535-16.058 97.28s5.818 66.56 16.058 97.28v132.655h-171.055c-34.676-69.12-54.458-147.316-54.458-229.935s19.782-160.815 54.458-229.935l171.055 132.655z" />
<glyph unicode="&#xe931;" d="M522.24 735.030c75.171 0 142.662-25.833 195.724-76.567l146.851 146.851c-88.669 82.618-204.567 133.353-342.574 133.353-200.145 0-373.294-114.735-457.541-282.064l171.055-132.655c40.262 121.018 153.135 211.084 286.486 211.084v0z" />
<glyph unicode="&#xe932;" glyph-name="LINE" d="M512.027 905.879v0c-282.809 0-512.027-183.552-512.027-409.979 0-201.863 182.156-369.617 421.982-403.671v0h0.112c5.638-0.781 11.333-1.507 17.027-2.177 81.671-17.027 10.886-119.243 37.626-140.121 30.76-24.061 263.829 131.804 405.402 262.657 20.487 17.139 39.133 35.727 55.657 55.546l0.279 0.335c3.963 4.355 7.090 8.318 9.49 11.836 48.456 62.636 76.424 136.492 76.424 215.597 0.056 226.427-229.218 409.979-511.971 409.979zM344.887 391.786c0-14.681-12.002-26.685-26.685-26.685h-103.276c-14.681 0-26.685 12.002-26.685 26.685v198.067c0 14.681 12.002 26.685 26.685 26.685h2.232c14.681 0 26.685-12.002 26.685-26.685v-169.15h74.359c14.681 0 26.685-12.002 26.685-26.685v-2.232zM422.092 391.786c0-14.681-12.002-26.685-26.685-26.685h-2.232c-14.681 0-26.685 12.002-26.685 26.685v198.067c0 14.681 12.002 26.685 26.685 26.685h2.232c14.681 0 26.685-12.002 26.685-26.685v-198.067zM663.983 391.786c0-7.034-2.791-13.733-7.703-18.758v0 0c-1.563-1.954-3.852-3.572-6.531-4.857-3.852-2.066-8.15-3.127-12.449-3.127h-2.232c-3.572 0-6.978 0.725-10.105 2.010-4.075 1.507-7.703 4.019-10.384 7.649v0c-0.725 0.837-1.34 1.731-1.954 2.679l-97.191 132.808v-118.405c0-14.681-12.002-26.685-26.685-26.685h-2.232c-14.681 0-26.685 12.002-26.685 26.685v198.067c0 14.681 12.002 26.685 26.685 26.685h2.232c9.881 0 18.59-5.471 23.167-13.509l96.522-129.458v116.284c0 14.681 12.002 26.685 26.685 26.685h2.232c14.681 0 26.685-12.002 26.685-26.685v-198.067zM854.848 587.118c0-14.681-12.002-26.685-26.685-26.685h-74.359v-42.26h74.359c14.681 0 26.685-12.002 26.685-26.685v-2.232c0-14.681-12.002-26.685-26.685-26.685h-74.359v-42.26h74.359c14.681 0 26.685-12.002 26.685-26.685v-2.232c0-14.681-12.002-26.685-26.685-26.685h-103.276c-14.681 0-26.685 12.002-26.685 26.685v197.955c0 14.681 12.002 26.685 26.685 26.685h103.276c14.681 0 26.685-12.002 26.685-26.685v-2.232z" />
<glyph unicode="&#xe933;" glyph-name="edm" d="M29.867 674.134h243.2v-85.333h-140.8v-76.8h132.267v-85.333h-132.267v-89.6h145.067v-85.333h-247.467v422.4zM324.267 674.134h123.733c38.4 0 68.267-8.533 93.867-25.6s42.667-42.667 51.2-76.8c8.533-34.133 17.067-68.267 17.067-106.667 0-64-12.8-119.467-42.667-157.867s-72.533-59.733-132.267-59.733h-110.933v426.667zM422.4 593.067v-260.267h8.533c51.2 0 76.8 46.933 76.8 140.8 0 34.133-4.267 64-17.067 85.333s-29.867 34.133-55.467 34.133h-12.8zM657.067 674.134h110.933l59.733-162.133 59.733 162.133h110.933v-426.667h-102.4v157.867c0 38.4 0 81.067 4.267 123.733h-4.267c-4.267-21.333-12.8-46.933-25.6-85.333l-42.667-123.733-42.667 123.733c-12.8 38.4-21.333 64-25.6 85.333h-8.533c4.267-38.4 4.267-81.067 4.267-123.733v-157.867h-98.133v426.667z" />
<glyph unicode="&#xe934;" glyph-name="partner" d="M711.067 701.667c4.885-11.197 9.14-24.414 12.091-38.116l0.256-1.417c32.102-11.213 54.734-41.2 54.813-76.484v-0.010c-0.098-44.064-35.842-79.747-79.92-79.747-0.108 0-0.216 0-0.323 0.001h-1.316c-16.587-26.78-37.933-49.007-63.059-66.089l-0.754-0.484c19.111-8.644 41.436-13.68 64.937-13.68 0.079 0 0.157 0 0.236 0h-0.012c88.72 0 160.44 71.307 160.44 159.507s-71.72 161.333-160.44 161.333q-6.12 0-12.12-0.467c9.527-12.82 17.96-27.41 24.634-42.935l0.54-1.411zM725.053 382.667c19.148-13.003 35.636-27.974 49.798-44.953l0.309-0.38c13.298-15.914 23.865-34.648 30.654-55.105l0.346-1.202c29.653-13.147 52.28-32 52.28-56.507v-79.587h-45.107v-80.267h125.333v159.813c0 96.147-129.12 148.4-213.613 158.187zM312.933 701.334c-4.889-11.197-9.148-24.414-12.104-38.115l-0.256-1.418c-32.088-11.214-54.711-41.187-54.8-76.456v-0.011c0.098-44.064 35.842-79.747 79.92-79.747 0.108 0 0.216 0 0.323 0.001h1.316c16.595-26.777 37.945-49.003 63.072-66.089l0.755-0.484c-19.111-8.644-41.436-13.68-64.937-13.68-0.079 0-0.157 0-0.236 0h0.012c-88.667 0-160.44 71.36-160.44 159.56s71.72 161.333 160.44 161.333q6.12 0 12.12-0.467c-9.537-12.842-17.975-27.46-24.648-43.014l-0.539-1.413zM298.947 382.347c-19.143-13.012-35.63-27.982-49.798-44.954l-0.308-0.38c-13.295-15.919-23.861-34.657-30.654-55.117l-0.346-1.203c-29.653-13.147-52.28-32-52.28-56.507v-79.587h45.107v-80.227h-125.333v159.827c0 96.147 129.12 148.4 213.613 158.147zM512 448c94.373 0 170.667 75.853 170.667 169.667s-76.293 171.667-170.667 171.667-170.667-77.853-170.667-171.667 76.293-169.667 170.667-169.667zM512 704c47.187 0 85.333-38.92 85.333-85.827 0-47.128-38.205-85.333-85.333-85.333s-85.333 38.205-85.333 85.333v0c0 46.907 38.147 85.827 85.333 85.827zM512 404c-85.333 0-256-56-256-170v-170h512v170c0 114-170.667 170-256 170zM682.667 149.334h-341.333v84.667c0 56.773 113.773 84.667 170.667 84.667s170.667-27.893 170.667-84.667z" />
<glyph unicode="&#xe935;" glyph-name="coin" d="M512 852.667c-235.273 0-426-190.727-426-426s190.727-426 426-426c235.273 0 426 190.727 426 426v0c0.001 0.278 0.001 0.606 0.001 0.934 0 234.758-190.309 425.067-425.067 425.067-0.329 0-0.657 0-0.986-0.001h0.051zM512 84.667c-188.697 0-341.667 152.969-341.667 341.667s152.969 341.667 341.667 341.667c188.697 0 341.667-152.969 341.667-341.667v0c0.001-0.222 0.001-0.485 0.001-0.747 0-188.285-152.635-340.92-340.92-340.92-0.263 0-0.525 0-0.788 0.001h0.041zM645.853 424.827q-23.72 18.4-71.213 29.333l-72.253 16.76q-41.827 9.627-54.667 16.76-20 10.667-20 32.4 0 23.627 20.333 36.813t54.413 13.187q30.667 0 51.253-10.173 30.92-15.387 33.213-51.907h82.667q-2.253 64.533-48.773 98.467c-18.715 13.739-40.939 23.93-65.032 29.078l-1.128 0.202v46.92h-85.333v-44.76q-50.667-7-80.587-33.44-40.747-36-40.747-90.373 0-59.6 41.613-87.613 24.573-16.76 90.293-31.040l44.573-9.613q39.147-8.24 57.173-18.96 18-10.973 18.013-31.027 0-34.333-36.787-46.973-19.4-6.6-50.48-6.587-51.92 0-73.333 24.987-11.707 13.747-15.693 41.48h-82.040q0-63.173 46.587-99.293 32.347-25.080 81.413-32.733v-46.053h85.333v45.147q52 7.040 84.373 34.187 43.627 36.667 43.627 92.147 0 54.12-36.813 82.68z" />
<glyph unicode="&#xe936;" glyph-name="discount" d="M579.786 234.294l-30.64-30.64-30.64 331.387 30.64 30.64 30.64-331.387zM624.56 429.921c-11.579-11.581-18.74-27.579-18.74-45.25 0-35.346 28.654-64 64-64s64 28.654 64 64c0 17.671-7.161 33.668-18.74 45.25v0c-11.582 11.585-27.584 18.75-45.26 18.75s-33.678-7.166-45.26-18.75v0zM684.906 369.587c-3.861-3.864-9.196-6.253-15.090-6.253-11.782 0-21.333 9.551-21.333 21.333s9.551 21.333 21.333 21.333c5.893 0 11.229-2.39 15.090-6.253v0c3.858-3.86 6.243-9.191 6.243-15.080s-2.386-11.22-6.244-15.080v0zM383.213 429.454c-11.583-11.582-18.747-27.582-18.747-45.256 0-35.346 28.654-64 64-64s64 28.654 64 64c0 17.674-7.164 33.674-18.747 45.256v0c-11.582 11.581-27.581 18.744-45.253 18.744s-33.672-7.163-45.253-18.744v0zM443.546 369.107c-3.86-3.86-9.193-6.247-15.083-6.247-11.782 0-21.333 9.551-21.333 21.333s9.551 21.333 21.333 21.333c5.89 0 11.223-2.387 15.083-6.247v0c3.862-3.861 6.25-9.195 6.25-15.087s-2.389-11.226-6.25-15.087v0zM914 444.667l-384 384q-24 24-60 24h-300c-46 0-84-38-84-84v-300q0-36 24-60l384-384q24-24 60-24t60 24l300 300q24 24 24 60t-24 60zM554 84.667l-383.8 383.813 0.853 0.853v298.667h298.667l0.48 0.48 383.8-383.813zM319.333 672.667c0-29.455-23.878-53.333-53.333-53.333s-53.333 23.878-53.333 53.333c0 29.455 23.878 53.333 53.333 53.333s53.333-23.878 53.333-53.333z" />
<glyph unicode="&#xe937;" glyph-name="letter" d="M853.334 768h-682.667c-47.128 0-85.333-38.205-85.333-85.333v0-512c0-47.128 38.205-85.333 85.333-85.333v0h682.667c47.128 0 85.333 38.205 85.333 85.333v0 512c0 47.128-38.205 85.333-85.333 85.333v0zM170.668 170.667v512h682.667l-341.333-192-341.333 192v-85.333l341.333-192 341.333 192v-426.667z" />
<glyph unicode="&#xe938;" glyph-name="messages" d="M682.669 597.334h-256v-108.173c51.371-30.035 85.333-84.925 85.333-147.748 0-0.028 0-0.055 0-0.083v0.004-256h-341.333v256c0.001 62.837 33.961 117.742 84.528 147.364l0.805 0.436v-147.8h85.333v341.333h213.333v170.667h-298.667v-270.573c-100.282-36.24-170.663-130.613-170.667-241.426v-256.001c0-47.128 38.205-85.333 85.333-85.333v0h682.667c47.128 0 85.333 38.205 85.333 85.333v0 256c0 141.333-114.667 256-256 256zM853.335 85.334h-256v256c0 0.104 0 0.227 0 0.35 0 65.574-24.75 125.367-65.418 170.548l0.204-0.231h150.547c94.257 0 170.667-76.41 170.667-170.667v0zM256.002 170.667h170.667v42.667h-170.667z" />
<glyph unicode="&#xe939;" glyph-name="profile" d="M512 831.667c-117.093 0-211.76-97.16-211.76-214.24 0-116.952 94.808-211.76 211.76-211.76s211.76 94.808 211.76 211.76v0c0 117.080-94.667 214.24-211.76 214.24zM512 491c-0.028 0-0.061 0-0.093 0-70.044 0-126.827 56.782-126.827 126.827 0 0.033 0 0.066 0 0.099v-0.005c0 70.173 56.747 128.413 126.92 128.413s126.92-58.24 126.92-128.413c0-0.028 0-0.061 0-0.093 0-70.044-56.782-126.827-126.827-126.827-0.033 0-0.066 0-0.099 0h0.005zM563.587 360.667l-51.587-68.773-51.587 68.773c-119.6-13.16-289.747-68.467-289.747-167.24v-171.76h682.667v171.76c0 98.773-170.147 154.080-289.747 167.24zM768 107h-512v86.093c0 40.373 84.933 66.253 164.933 78l91.067-121.427 91.067 121.427c80-11.747 164.933-37.627 164.933-78z" />
<glyph unicode="&#xe93a;" glyph-name="shippingcart" horiz-adv-x="1337" d="M52.934 832.222h203.446l206.451-657.555c6.935-22.074 27.383-37.074 50.515-37.074h644.564c29.234 0 52.934 23.7 52.934 52.934s-23.7 52.934-52.934 52.934h-605.702l-41.321 131.602h661.577c46.383 0 88.857 34.159 98.774 79.48l60.955 278.045c5.625 25.687-0.181 51.669-15.951 71.28-15.77 19.586-39.898 30.837-66.219 30.837h-883.436l-20.829 66.311c-6.935 22.074-27.383 37.074-50.493 37.074h-242.33c-29.234 0-52.934-23.7-52.934-52.934s23.7-52.934 52.934-52.934zM1169.23 480.906l-688.1-0.181c-0.656 0.203-1.718 0.903-2.146 0.903-0.136 0-0.203-0.092-0.181-0.295l-23.202 70.602h729.038l-15.409-71.030zM399.819 728.814h823.226l-15.409-71.008h-786.805l-23.339 71.008h2.326zM658.753 13.604c0-41.488-33.633-75.121-75.121-75.121s-75.121 33.633-75.121 75.121c0 41.488 33.633 75.121 75.121 75.121s75.121-33.633 75.121-75.121zM1124.001 13.604c0-41.488-33.633-75.121-75.121-75.121s-75.121 33.633-75.121 75.121c0 41.488 33.633 75.121 75.121 75.121s75.121-33.633 75.121-75.121z" />
<glyph unicode="&#xe93b;" glyph-name="facebook" d="M585.642-69.333h-197.933v496.063h-98.908v170.926h98.908v102.619c0 139.433 55.819 222.392 214.506 222.392h132.079v-170.989h-82.55c-61.777 0-65.858-23.886-65.858-68.465l-0.273-85.557h149.586l-17.509-170.926h-132.079v-496.063h0.033z" />
<glyph unicode="&#xeb3c;" glyph-name="airport_shuttle" d="M640 468.667h214l-172 172h-42v-172zM746 192.667c36 0 64 28 64 64s-28 64-64 64-64-28-64-64 28-64 64-64zM554 468.667v172h-170v-172h170zM256 192.667c36 0 64 28 64 64s-28 64-64 64-64-28-64-64 28-64 64-64zM128 468.667h170v172h-170v-172zM726 724.667l256-256v-212h-108c0-70-58-128-128-128s-128 58-128 128h-234c0-70-58-128-128-128s-128 58-128 128h-86v384c0 48 40 84 86 84h598z" />
<glyph unicode="&#xf145;" glyph-name="ticket" d="M585.143 692.571l180.571-180.571-326.857-326.857-180.571 180.571zM464.571 133.143l353.143 353.143c14.286 14.286 14.286 37.143 0 51.429l-206.857 206.857c-13.714 13.714-37.714 13.714-51.429 0l-353.143-353.143c-14.286-14.286-14.286-37.143 0-51.429l206.857-206.857c6.857-6.857 16-10.286 25.714-10.286s18.857 3.429 25.714 10.286zM972.571 497.143l-518.286-518.857c-28.571-28-75.429-28-103.429 0l-72 72c42.857 42.857 42.857 112.571 0 155.429s-112.571 42.857-155.429 0l-71.429 72c-28.571 28-28.571 74.857 0 103.429l518.286 517.714c28 28.571 74.857 28.571 103.429 0l71.429-71.429c-42.857-42.857-42.857-112.571 0-155.429s112.571-42.857 155.429 0l72-71.429c28-28.571 28-75.429 0-103.429z" />
</font>
</defs>
</svg>
